0, 0, Header, 1, 2, 960
1, 0, Start_track
1, 0, Sequencer_specific, 15, 5, 15, 28, 50, 48, 49, 51, 46, 48, 57, 46, 48, 49, 1, 3
1, 0, Sequencer_specific, 42, 5, 15, 45, 77, 105, 99, 114, 111, 115, 111, 102, 116, 32, 83, 97, 110, 115, 32, 83, 101, 114, 105, 102, 44, 56, 46, 50, 53, 44, 70, 97, 108, 115, 101, 44, 70, 97, 108, 115, 101, 44, 49
1, 0, Sequencer_specific, 51, 5, 15, 18, 3, 3, 127, 127, 0, 255, 1, 4, 39, 83, 112, 101, 97, 107, 101, 114, 115, 32, 40, 72, 105, 103, 104, 32, 68, 101, 102, 105, 110, 105, 116, 105, 111, 110, 32, 65, 117, 100, 105, 111, 32, 68, 101, 118, 105, 99, 101, 41
1, 0, Time_signature, 4, 2, 24, 8
1, 0, End_track
2, 0, Start_track
2, 0, Sequencer_specific, 5, 5, 15, 9, 72, 72
2, 0, Sequencer_specific, 15, 5, 15, 6, 71, 101, 110, 101, 114, 97, 108, 32, 77, 73, 68, 73
2, 0, Title_t, "Track 1"
2, 0, Program_c, 0, 0
2, 0, Note_on_c, 0, 72, 64
2, 960, Note_off_c, 0, 72, 0
2, 960, Note_on_c, 0, 74, 64
2, 1920, Note_off_c, 0, 74, 0
2, 1920, Note_on_c, 0, 68, 64
2, 2880, Note_off_c, 0, 68, 0
2, 2880, Note_on_c, 0, 69, 64
2, 3840, Note_off_c, 0, 69, 0
2, 3840, Note_on_c, 0, 65, 64
2, 4800, Note_off_c, 0, 65, 0
2, 4800, Note_on_c, 0, 65, 64
2, 5760, Note_off_c, 0, 65, 0
2, 5760, Note_on_c, 0, 62, 64
2, 6720, Note_off_c, 0, 62, 0
2, 6720, Note_on_c, 0, 60, 64
2, 7680, Note_off_c, 0, 60, 0
2, 7680, Note_on_c, 0, 60, 64
2, 8640, Note_off_c, 0, 60, 0
2, 8640, Note_on_c, 0, 64, 64
2, 9600, Note_off_c, 0, 64, 0
2, 9600, Note_on_c, 0, 67, 64
2, 10560, Note_off_c, 0, 67, 0
2, 10560, Note_on_c, 0, 69, 64
2, 11520, Note_off_c, 0, 69, 0
2, 11520, Note_on_c, 0, 72, 64
2, 12480, Note_off_c, 0, 72, 0
2, 12480, Note_on_c, 0, 70, 64
2, 13440, Note_off_c, 0, 70, 0
2, 13440, Note_on_c, 0, 67, 64
2, 14400, Note_off_c, 0, 67, 0
2, 14400, Note_on_c, 0, 65, 64
2, 15360, Note_off_c, 0, 65, 0
2, 15360, Sequencer_specific, 3, 5, 15, 10
2, 15360, End_track
0, 0, End_of_file
