0, 0, Header, 1, 4, 96
1, 0, Start_track
1, 0, Time_signature, 4, 2, 24, 8
1, 0, End_track
2, 0, Start_track
2, 0, Tempo, 600000
2, 0, Tempo, 600000
2, 0, Tempo, 600000
2, 0, End_track
3, 0, Start_track
3, 0, Title_t, "Channel #3"
3, 0, Control_c, 2, 10, 64
3, 0, Control_c, 2, 7, 100
3, 0, Pitch_bend_c, 2, 8192
3, 0, Control_c, 2, 101, 0
3, 0, Control_c, 2, 100, 0
3, 0, Control_c, 2, 6, 12
3, 0, Control_c, 2, 10, 64
3, 0, Control_c, 2, 7, 100
3, 0, Pitch_bend_c, 2, 8192
3, 0, Program_c, 2, 0
3, 0, Control_c, 2, 91, 40
3, 0, Control_c, 2, 93, 0
3, 0, Control_c, 2, 101, 0
3, 0, Control_c, 2, 100, 0
3, 0, Control_c, 2, 6, 12
3, 0, Control_c, 2, 10, 64
3, 0, Control_c, 2, 7, 100
3, 0, Pitch_bend_c, 2, 8192
3, 0, Program_c, 2, 0
3, 0, Control_c, 2, 91, 40
3, 0, Control_c, 2, 93, 0
3, 0, Control_c, 2, 101, 0
3, 0, Control_c, 2, 100, 0
3, 0, Control_c, 2, 6, 12
3, 0, Control_c, 2, 10, 64
3, 0, Control_c, 2, 7, 100
3, 0, Pitch_bend_c, 2, 8192
3, 0, Program_c, 2, 0
3, 0, Control_c, 2, 91, 40
3, 0, Control_c, 2, 93, 0
3, 0, Note_on_c, 2, 48, 68
3, 48, Note_off_c, 2, 48, 0
3, 48, Note_on_c, 2, 50, 64
3, 96, Program_c, 2, 0
3, 96, Note_on_c, 2, 52, 69
3, 99, Control_c, 2, 7, 100
3, 99, Control_c, 2, 10, 64
3, 100, Control_c, 2, 91, 40
3, 100, Control_c, 2, 93, 0
3, 101, Note_off_c, 2, 50, 0
3, 144, Note_on_c, 2, 53, 70
3, 152, Note_off_c, 2, 52, 0
3, 192, Note_on_c, 2, 55, 76
3, 197, Note_off_c, 2, 53, 0
3, 240, Note_on_c, 2, 53, 71
3, 244, Note_off_c, 2, 55, 0
3, 288, Note_on_c, 2, 52, 80
3, 292, Note_off_c, 2, 53, 0
3, 336, Note_on_c, 2, 50, 67
3, 340, Note_off_c, 2, 52, 0
3, 384, Note_on_c, 2, 48, 77
3, 389, Note_off_c, 2, 50, 0
3, 574, Note_off_c, 2, 48, 0
3, 2304, Note_on_c, 2, 50, 68
3, 2352, Note_off_c, 2, 50, 0
3, 2352, Note_on_c, 2, 52, 64
3, 2400, Note_on_c, 2, 54, 69
3, 2405, Note_off_c, 2, 52, 0
3, 2448, Note_on_c, 2, 55, 70
3, 2456, Note_off_c, 2, 54, 0
3, 2496, Note_on_c, 2, 57, 76
3, 2501, Note_off_c, 2, 55, 0
3, 2544, Note_on_c, 2, 55, 71
3, 2548, Note_off_c, 2, 57, 0
3, 2592, Note_on_c, 2, 54, 80
3, 2596, Note_off_c, 2, 55, 0
3, 2640, Note_on_c, 2, 52, 67
3, 2644, Note_off_c, 2, 54, 0
3, 2688, Note_on_c, 2, 50, 77
3, 2693, Note_off_c, 2, 52, 0
3, 2878, Note_off_c, 2, 50, 0
3, 4608, Note_on_c, 2, 52, 68
3, 4656, Note_off_c, 2, 52, 0
3, 4656, Note_on_c, 2, 54, 64
3, 4704, Note_on_c, 2, 56, 69
3, 4709, Note_off_c, 2, 54, 0
3, 4752, Note_on_c, 2, 57, 70
3, 4760, Note_off_c, 2, 56, 0
3, 4800, Note_on_c, 2, 59, 76
3, 4805, Note_off_c, 2, 57, 0
3, 4848, Note_on_c, 2, 57, 71
3, 4852, Note_off_c, 2, 59, 0
3, 4896, Note_on_c, 2, 56, 80
3, 4900, Note_off_c, 2, 57, 0
3, 4944, Note_on_c, 2, 54, 67
3, 4948, Note_off_c, 2, 56, 0
3, 4992, Note_on_c, 2, 52, 77
3, 4997, Note_off_c, 2, 54, 0
3, 5182, Note_off_c, 2, 52, 0
3, 6912, Note_on_c, 2, 53, 68
3, 6960, Note_off_c, 2, 53, 0
3, 6960, Note_on_c, 2, 55, 64
3, 7008, Note_on_c, 2, 57, 69
3, 7013, Note_off_c, 2, 55, 0
3, 7056, Note_on_c, 2, 58, 70
3, 7064, Note_off_c, 2, 57, 0
3, 7104, Note_on_c, 2, 60, 76
3, 7109, Note_off_c, 2, 58, 0
3, 7152, Note_on_c, 2, 58, 71
3, 7156, Note_off_c, 2, 60, 0
3, 7200, Note_on_c, 2, 57, 80
3, 7204, Note_off_c, 2, 58, 0
3, 7248, Note_on_c, 2, 55, 67
3, 7252, Note_off_c, 2, 57, 0
3, 7296, Note_on_c, 2, 53, 77
3, 7301, Note_off_c, 2, 55, 0
3, 7486, Note_off_c, 2, 53, 0
3, 9216, Note_on_c, 2, 55, 68
3, 9264, Note_off_c, 2, 55, 0
3, 9264, Note_on_c, 2, 57, 64
3, 9312, Note_on_c, 2, 59, 69
3, 9317, Note_off_c, 2, 57, 0
3, 9360, Note_on_c, 2, 60, 70
3, 9368, Note_off_c, 2, 59, 0
3, 9408, Note_on_c, 2, 62, 76
3, 9413, Note_off_c, 2, 60, 0
3, 9456, Note_on_c, 2, 60, 71
3, 9460, Note_off_c, 2, 62, 0
3, 9504, Note_on_c, 2, 59, 80
3, 9508, Note_off_c, 2, 60, 0
3, 9552, Note_on_c, 2, 57, 67
3, 9556, Note_off_c, 2, 59, 0
3, 9600, Note_on_c, 2, 55, 77
3, 9605, Note_off_c, 2, 57, 0
3, 9790, Note_off_c, 2, 55, 0
3, 11520, Note_on_c, 2, 57, 68
3, 11568, Note_off_c, 2, 57, 0
3, 11568, Note_on_c, 2, 59, 64
3, 11616, Note_on_c, 2, 61, 69
3, 11621, Note_off_c, 2, 59, 0
3, 11664, Note_on_c, 2, 62, 70
3, 11672, Note_off_c, 2, 61, 0
3, 11712, Note_on_c, 2, 64, 76
3, 11717, Note_off_c, 2, 62, 0
3, 11760, Note_on_c, 2, 62, 71
3, 11764, Note_off_c, 2, 64, 0
3, 11808, Note_on_c, 2, 61, 80
3, 11812, Note_off_c, 2, 62, 0
3, 11856, Note_on_c, 2, 59, 67
3, 11860, Note_off_c, 2, 61, 0
3, 11904, Note_on_c, 2, 57, 77
3, 11909, Note_off_c, 2, 59, 0
3, 12094, Note_off_c, 2, 57, 0
3, 13824, Note_on_c, 2, 59, 68
3, 13872, Note_off_c, 2, 59, 0
3, 13872, Note_on_c, 2, 61, 64
3, 13920, Note_on_c, 2, 63, 69
3, 13925, Note_off_c, 2, 61, 0
3, 13968, Note_on_c, 2, 64, 70
3, 13976, Note_off_c, 2, 63, 0
3, 14016, Note_on_c, 2, 66, 76
3, 14021, Note_off_c, 2, 64, 0
3, 14064, Note_on_c, 2, 64, 71
3, 14068, Note_off_c, 2, 66, 0
3, 14112, Note_on_c, 2, 63, 80
3, 14116, Note_off_c, 2, 64, 0
3, 14160, Note_on_c, 2, 61, 67
3, 14164, Note_off_c, 2, 63, 0
3, 14208, Note_on_c, 2, 59, 77
3, 14213, Note_off_c, 2, 61, 0
3, 14398, Note_off_c, 2, 59, 0
3, 16128, Note_on_c, 2, 60, 68
3, 16176, Note_off_c, 2, 60, 0
3, 16176, Note_on_c, 2, 62, 64
3, 16224, Note_on_c, 2, 64, 69
3, 16229, Note_off_c, 2, 62, 0
3, 16272, Note_on_c, 2, 65, 70
3, 16280, Note_off_c, 2, 64, 0
3, 16320, Note_on_c, 2, 67, 76
3, 16325, Note_off_c, 2, 65, 0
3, 16368, Note_on_c, 2, 65, 71
3, 16372, Note_off_c, 2, 67, 0
3, 16416, Note_on_c, 2, 64, 80
3, 16420, Note_off_c, 2, 65, 0
3, 16464, Note_on_c, 2, 62, 67
3, 16468, Note_off_c, 2, 64, 0
3, 16512, Note_on_c, 2, 60, 77
3, 16517, Note_off_c, 2, 62, 0
3, 16702, Note_off_c, 2, 60, 0
3, 17664, Control_c, 2, 101, 0
3, 17664, Control_c, 2, 100, 0
3, 17664, Control_c, 2, 6, 12
3, 17664, Control_c, 2, 10, 64
3, 17664, Control_c, 2, 7, 100
3, 17664, Pitch_bend_c, 2, 8192
3, 17664, Program_c, 2, 0
3, 17664, Control_c, 2, 91, 40
3, 17664, Control_c, 2, 93, 0
3, 17664, Control_c, 2, 101, 0
3, 17664, Control_c, 2, 100, 0
3, 17664, Control_c, 2, 6, 12
3, 17664, Control_c, 2, 10, 64
3, 17664, Control_c, 2, 7, 100
3, 17664, Pitch_bend_c, 2, 8192
3, 17664, Program_c, 2, 0
3, 17664, Control_c, 2, 91, 40
3, 17664, Control_c, 2, 93, 0
3, 17664, Control_c, 2, 101, 0
3, 17664, Control_c, 2, 100, 0
3, 17664, Control_c, 2, 6, 12
3, 17664, Control_c, 2, 10, 64
3, 17664, Control_c, 2, 7, 100
3, 17664, Pitch_bend_c, 2, 8192
3, 17664, Program_c, 2, 0
3, 17664, Control_c, 2, 91, 40
3, 17664, Control_c, 2, 93, 0
3, 17664, End_track
4, 0, Start_track
4, 0, Title_t, "Channel #4"
4, 0, Control_c, 3, 10, 64
4, 0, Control_c, 3, 7, 100
4, 0, Pitch_bend_c, 3, 8192
4, 0, Control_c, 3, 101, 0
4, 0, Control_c, 3, 100, 0
4, 0, Control_c, 3, 6, 12
4, 0, Control_c, 3, 10, 64
4, 0, Control_c, 3, 7, 100
4, 0, Pitch_bend_c, 3, 8192
4, 0, Program_c, 3, 0
4, 0, Control_c, 3, 91, 40
4, 0, Control_c, 3, 93, 0
4, 0, Control_c, 3, 101, 0
4, 0, Control_c, 3, 100, 0
4, 0, Control_c, 3, 6, 12
4, 0, Control_c, 3, 10, 64
4, 0, Control_c, 3, 7, 100
4, 0, Pitch_bend_c, 3, 8192
4, 0, Program_c, 3, 0
4, 0, Control_c, 3, 91, 40
4, 0, Control_c, 3, 93, 0
4, 0, Control_c, 3, 101, 0
4, 0, Control_c, 3, 100, 0
4, 0, Control_c, 3, 6, 12
4, 0, Control_c, 3, 10, 64
4, 0, Control_c, 3, 7, 100
4, 0, Pitch_bend_c, 3, 8192
4, 0, Program_c, 3, 0
4, 0, Control_c, 3, 91, 40
4, 0, Control_c, 3, 93, 0
4, 101, Program_c, 3, 0
4, 104, Control_c, 3, 7, 100
4, 104, Control_c, 3, 10, 64
4, 105, Control_c, 3, 91, 40
4, 105, Control_c, 3, 93, 0
4, 768, Note_on_c, 3, 60, 71
4, 816, Note_off_c, 3, 60, 0
4, 816, Note_on_c, 3, 62, 61
4, 864, Note_on_c, 3, 64, 69
4, 870, Note_off_c, 3, 62, 0
4, 912, Note_on_c, 3, 65, 72
4, 920, Note_off_c, 3, 64, 0
4, 960, Note_on_c, 3, 67, 82
4, 968, Note_off_c, 3, 65, 0
4, 1008, Note_on_c, 3, 65, 81
4, 1016, Note_off_c, 3, 67, 0
4, 1056, Note_on_c, 3, 64, 80
4, 1064, Note_off_c, 3, 65, 0
4, 1104, Note_on_c, 3, 62, 76
4, 1110, Note_off_c, 3, 64, 0
4, 1152, Note_on_c, 3, 60, 76
4, 1156, Note_off_c, 3, 62, 0
4, 1348, Note_off_c, 3, 60, 0
4, 3072, Note_on_c, 3, 62, 71
4, 3120, Note_off_c, 3, 62, 0
4, 3120, Note_on_c, 3, 64, 61
4, 3168, Note_on_c, 3, 66, 69
4, 3174, Note_off_c, 3, 64, 0
4, 3216, Note_on_c, 3, 67, 72
4, 3224, Note_off_c, 3, 66, 0
4, 3264, Note_on_c, 3, 69, 82
4, 3272, Note_off_c, 3, 67, 0
4, 3312, Note_on_c, 3, 67, 81
4, 3320, Note_off_c, 3, 69, 0
4, 3360, Note_on_c, 3, 66, 80
4, 3368, Note_off_c, 3, 67, 0
4, 3408, Note_on_c, 3, 64, 76
4, 3414, Note_off_c, 3, 66, 0
4, 3456, Note_on_c, 3, 62, 76
4, 3460, Note_off_c, 3, 64, 0
4, 3652, Note_off_c, 3, 62, 0
4, 5376, Note_on_c, 3, 64, 71
4, 5424, Note_off_c, 3, 64, 0
4, 5424, Note_on_c, 3, 66, 61
4, 5472, Note_on_c, 3, 68, 69
4, 5478, Note_off_c, 3, 66, 0
4, 5520, Note_on_c, 3, 69, 72
4, 5528, Note_off_c, 3, 68, 0
4, 5568, Note_on_c, 3, 71, 82
4, 5576, Note_off_c, 3, 69, 0
4, 5616, Note_on_c, 3, 69, 81
4, 5624, Note_off_c, 3, 71, 0
4, 5664, Note_on_c, 3, 68, 80
4, 5672, Note_off_c, 3, 69, 0
4, 5712, Note_on_c, 3, 66, 76
4, 5718, Note_off_c, 3, 68, 0
4, 5760, Note_on_c, 3, 64, 76
4, 5764, Note_off_c, 3, 66, 0
4, 5956, Note_off_c, 3, 64, 0
4, 7680, Note_on_c, 3, 65, 71
4, 7728, Note_off_c, 3, 65, 0
4, 7728, Note_on_c, 3, 67, 61
4, 7776, Note_on_c, 3, 69, 69
4, 7782, Note_off_c, 3, 67, 0
4, 7824, Note_on_c, 3, 70, 72
4, 7832, Note_off_c, 3, 69, 0
4, 7872, Note_on_c, 3, 72, 82
4, 7880, Note_off_c, 3, 70, 0
4, 7920, Note_on_c, 3, 70, 81
4, 7928, Note_off_c, 3, 72, 0
4, 7968, Note_on_c, 3, 69, 80
4, 7976, Note_off_c, 3, 70, 0
4, 8016, Note_on_c, 3, 67, 76
4, 8022, Note_off_c, 3, 69, 0
4, 8064, Note_on_c, 3, 65, 76
4, 8068, Note_off_c, 3, 67, 0
4, 8260, Note_off_c, 3, 65, 0
4, 9984, Note_on_c, 3, 67, 71
4, 10032, Note_off_c, 3, 67, 0
4, 10032, Note_on_c, 3, 69, 61
4, 10080, Note_on_c, 3, 71, 69
4, 10086, Note_off_c, 3, 69, 0
4, 10128, Note_on_c, 3, 72, 72
4, 10136, Note_off_c, 3, 71, 0
4, 10176, Note_on_c, 3, 74, 82
4, 10184, Note_off_c, 3, 72, 0
4, 10224, Note_on_c, 3, 72, 81
4, 10232, Note_off_c, 3, 74, 0
4, 10272, Note_on_c, 3, 71, 80
4, 10280, Note_off_c, 3, 72, 0
4, 10320, Note_on_c, 3, 69, 76
4, 10326, Note_off_c, 3, 71, 0
4, 10368, Note_on_c, 3, 67, 76
4, 10372, Note_off_c, 3, 69, 0
4, 10564, Note_off_c, 3, 67, 0
4, 12288, Note_on_c, 3, 69, 71
4, 12336, Note_off_c, 3, 69, 0
4, 12336, Note_on_c, 3, 71, 61
4, 12384, Note_on_c, 3, 73, 69
4, 12390, Note_off_c, 3, 71, 0
4, 12432, Note_on_c, 3, 74, 72
4, 12440, Note_off_c, 3, 73, 0
4, 12480, Note_on_c, 3, 76, 82
4, 12488, Note_off_c, 3, 74, 0
4, 12528, Note_on_c, 3, 74, 81
4, 12536, Note_off_c, 3, 76, 0
4, 12576, Note_on_c, 3, 73, 80
4, 12584, Note_off_c, 3, 74, 0
4, 12624, Note_on_c, 3, 71, 76
4, 12630, Note_off_c, 3, 73, 0
4, 12672, Note_on_c, 3, 69, 76
4, 12676, Note_off_c, 3, 71, 0
4, 12868, Note_off_c, 3, 69, 0
4, 14592, Note_on_c, 3, 71, 71
4, 14640, Note_off_c, 3, 71, 0
4, 14640, Note_on_c, 3, 73, 61
4, 14688, Note_on_c, 3, 75, 69
4, 14694, Note_off_c, 3, 73, 0
4, 14736, Note_on_c, 3, 76, 72
4, 14744, Note_off_c, 3, 75, 0
4, 14784, Note_on_c, 3, 78, 82
4, 14792, Note_off_c, 3, 76, 0
4, 14832, Note_on_c, 3, 76, 81
4, 14840, Note_off_c, 3, 78, 0
4, 14880, Note_on_c, 3, 75, 80
4, 14888, Note_off_c, 3, 76, 0
4, 14928, Note_on_c, 3, 73, 76
4, 14934, Note_off_c, 3, 75, 0
4, 14976, Note_on_c, 3, 71, 76
4, 14980, Note_off_c, 3, 73, 0
4, 15172, Note_off_c, 3, 71, 0
4, 16896, Note_on_c, 3, 72, 71
4, 16944, Note_off_c, 3, 72, 0
4, 16944, Note_on_c, 3, 74, 61
4, 16992, Note_on_c, 3, 76, 69
4, 16998, Note_off_c, 3, 74, 0
4, 17040, Note_on_c, 3, 77, 72
4, 17048, Note_off_c, 3, 76, 0
4, 17088, Note_on_c, 3, 79, 82
4, 17096, Note_off_c, 3, 77, 0
4, 17136, Note_on_c, 3, 77, 81
4, 17144, Note_off_c, 3, 79, 0
4, 17184, Note_on_c, 3, 76, 80
4, 17192, Note_off_c, 3, 77, 0
4, 17232, Note_on_c, 3, 74, 76
4, 17238, Note_off_c, 3, 76, 0
4, 17280, Note_on_c, 3, 72, 76
4, 17284, Note_off_c, 3, 74, 0
4, 17476, Note_off_c, 3, 72, 0
4, 17664, Control_c, 3, 101, 0
4, 17664, Control_c, 3, 100, 0
4, 17664, Control_c, 3, 6, 12
4, 17664, Control_c, 3, 10, 64
4, 17664, Control_c, 3, 7, 100
4, 17664, Pitch_bend_c, 3, 8192
4, 17664, Program_c, 3, 0
4, 17664, Control_c, 3, 91, 40
4, 17664, Control_c, 3, 93, 0
4, 17664, Control_c, 3, 101, 0
4, 17664, Control_c, 3, 100, 0
4, 17664, Control_c, 3, 6, 12
4, 17664, Control_c, 3, 10, 64
4, 17664, Control_c, 3, 7, 100
4, 17664, Pitch_bend_c, 3, 8192
4, 17664, Program_c, 3, 0
4, 17664, Control_c, 3, 91, 40
4, 17664, Control_c, 3, 93, 0
4, 17664, Control_c, 3, 101, 0
4, 17664, Control_c, 3, 100, 0
4, 17664, Control_c, 3, 6, 12
4, 17664, Control_c, 3, 10, 64
4, 17664, Control_c, 3, 7, 100
4, 17664, Pitch_bend_c, 3, 8192
4, 17664, Program_c, 3, 0
4, 17664, Control_c, 3, 91, 40
4, 17664, Control_c, 3, 93, 0
4, 17664, End_track
0, 0, End_of_file
