0, 0, Header, 1, 4, 96
1, 0, Start_track
1, 0, Time_signature, 4, 2, 24, 8
1, 0, End_track
2, 0, Start_track
2, 0, Tempo, 600000
2, 0, Tempo, 600000
2, 0, Tempo, 600000
2, 0, End_track
3, 0, Start_track
3, 0, Title_t, "Channel #3"
3, 0, Control_c, 2, 10, 64
3, 0, Control_c, 2, 7, 100
3, 0, Pitch_bend_c, 2, 8192
3, 0, Control_c, 2, 101, 0
3, 0, Control_c, 2, 100, 0
3, 0, Control_c, 2, 6, 12
3, 0, Control_c, 2, 10, 64
3, 0, Control_c, 2, 7, 100
3, 0, Pitch_bend_c, 2, 8192
3, 0, Program_c, 2, 0
3, 0, Control_c, 2, 91, 40
3, 0, Control_c, 2, 93, 0
3, 0, Control_c, 2, 101, 0
3, 0, Control_c, 2, 100, 0
3, 0, Control_c, 2, 6, 12
3, 0, Control_c, 2, 10, 64
3, 0, Control_c, 2, 7, 100
3, 0, Pitch_bend_c, 2, 8192
3, 0, Program_c, 2, 0
3, 0, Control_c, 2, 91, 40
3, 0, Control_c, 2, 93, 0
3, 0, Control_c, 2, 101, 0
3, 0, Control_c, 2, 100, 0
3, 0, Control_c, 2, 6, 12
3, 0, Control_c, 2, 10, 64
3, 0, Control_c, 2, 7, 100
3, 0, Pitch_bend_c, 2, 8192
3, 0, Program_c, 2, 0
3, 0, Control_c, 2, 91, 40
3, 0, Control_c, 2, 93, 0
3, 0, Note_on_c, 2, 48, 68
3, 48, Note_off_c, 2, 48, 0
3, 48, Note_on_c, 2, 50, 64
3, 96, Program_c, 2, 0
3, 96, Note_on_c, 2, 52, 69
3, 99, Control_c, 2, 7, 100
3, 99, Control_c, 2, 10, 64
3, 100, Control_c, 2, 91, 40
3, 100, Control_c, 2, 93, 0
3, 101, Note_off_c, 2, 50, 0
3, 144, Note_on_c, 2, 53, 70
3, 152, Note_off_c, 2, 52, 0
3, 192, Note_on_c, 2, 55, 76
3, 197, Note_off_c, 2, 53, 0
3, 240, Note_on_c, 2, 53, 71
3, 244, Note_off_c, 2, 55, 0
3, 288, Note_on_c, 2, 52, 80
3, 292, Note_off_c, 2, 53, 0
3, 336, Note_on_c, 2, 50, 67
3, 340, Note_off_c, 2, 52, 0
3, 389, Note_off_c, 2, 50, 0
3, 1536, Control_c, 2, 101, 0
3, 1536, Control_c, 2, 100, 0
3, 1536, Control_c, 2, 6, 12
3, 1536, Control_c, 2, 10, 64
3, 1536, Control_c, 2, 7, 100
3, 1536, Pitch_bend_c, 2, 8192
3, 1536, Program_c, 2, 0
3, 1536, Control_c, 2, 91, 40
3, 1536, Control_c, 2, 93, 0
3, 1536, Control_c, 2, 101, 0
3, 1536, Control_c, 2, 100, 0
3, 1536, Control_c, 2, 6, 12
3, 1536, Control_c, 2, 10, 64
3, 1536, Control_c, 2, 7, 100
3, 1536, Pitch_bend_c, 2, 8192
3, 1536, Program_c, 2, 0
3, 1536, Control_c, 2, 91, 40
3, 1536, Control_c, 2, 93, 0
3, 1536, Control_c, 2, 101, 0
3, 1536, Control_c, 2, 100, 0
3, 1536, Control_c, 2, 6, 12
3, 1536, Control_c, 2, 10, 64
3, 1536, Control_c, 2, 7, 100
3, 1536, Pitch_bend_c, 2, 8192
3, 1536, Program_c, 2, 0
3, 1536, Control_c, 2, 91, 40
3, 1536, Control_c, 2, 93, 0
3, 1536, End_track
4, 0, Start_track
4, 0, Title_t, "Channel #4"
4, 0, Control_c, 3, 10, 64
4, 0, Control_c, 3, 7, 100
4, 0, Pitch_bend_c, 3, 8192
4, 0, Control_c, 3, 101, 0
4, 0, Control_c, 3, 100, 0
4, 0, Control_c, 3, 6, 12
4, 0, Control_c, 3, 10, 64
4, 0, Control_c, 3, 7, 100
4, 0, Pitch_bend_c, 3, 8192
4, 0, Program_c, 3, 0
4, 0, Control_c, 3, 91, 40
4, 0, Control_c, 3, 93, 0
4, 0, Control_c, 3, 101, 0
4, 0, Control_c, 3, 100, 0
4, 0, Control_c, 3, 6, 12
4, 0, Control_c, 3, 10, 64
4, 0, Control_c, 3, 7, 100
4, 0, Pitch_bend_c, 3, 8192
4, 0, Program_c, 3, 0
4, 0, Control_c, 3, 91, 40
4, 0, Control_c, 3, 93, 0
4, 0, Control_c, 3, 101, 0
4, 0, Control_c, 3, 100, 0
4, 0, Control_c, 3, 6, 12
4, 0, Control_c, 3, 10, 64
4, 0, Control_c, 3, 7, 100
4, 0, Pitch_bend_c, 3, 8192
4, 0, Program_c, 3, 0
4, 0, Control_c, 3, 91, 40
4, 0, Control_c, 3, 93, 0
4, 101, Program_c, 3, 0
4, 104, Control_c, 3, 7, 100
4, 104, Control_c, 3, 10, 64
4, 105, Control_c, 3, 91, 40
4, 105, Control_c, 3, 93, 0
4, 768, Note_on_c, 3, 60, 71
4, 816, Note_off_c, 3, 60, 0
4, 816, Note_on_c, 3, 62, 61
4, 864, Note_on_c, 3, 64, 69
4, 870, Note_off_c, 3, 62, 0
4, 912, Note_on_c, 3, 65, 72
4, 920, Note_off_c, 3, 64, 0
4, 960, Note_on_c, 3, 67, 82
4, 968, Note_off_c, 3, 65, 0
4, 1008, Note_on_c, 3, 65, 81
4, 1016, Note_off_c, 3, 67, 0
4, 1056, Note_on_c, 3, 64, 80
4, 1064, Note_off_c, 3, 65, 0
4, 1104, Note_on_c, 3, 62, 76
4, 1110, Note_off_c, 3, 64, 0
4, 1156, Note_off_c, 3, 62, 0
4, 1536, Control_c, 3, 101, 0
4, 1536, Control_c, 3, 100, 0
4, 1536, Control_c, 3, 6, 12
4, 1536, Control_c, 3, 10, 64
4, 1536, Control_c, 3, 7, 100
4, 1536, Pitch_bend_c, 3, 8192
4, 1536, Program_c, 3, 0
4, 1536, Control_c, 3, 91, 40
4, 1536, Control_c, 3, 93, 0
4, 1536, Control_c, 3, 101, 0
4, 1536, Control_c, 3, 100, 0
4, 1536, Control_c, 3, 6, 12
4, 1536, Control_c, 3, 10, 64
4, 1536, Control_c, 3, 7, 100
4, 1536, Pitch_bend_c, 3, 8192
4, 1536, Program_c, 3, 0
4, 1536, Control_c, 3, 91, 40
4, 1536, Control_c, 3, 93, 0
4, 1536, Control_c, 3, 101, 0
4, 1536, Control_c, 3, 100, 0
4, 1536, Control_c, 3, 6, 12
4, 1536, Control_c, 3, 10, 64
4, 1536, Control_c, 3, 7, 100
4, 1536, Pitch_bend_c, 3, 8192
4, 1536, Program_c, 3, 0
4, 1536, Control_c, 3, 91, 40
4, 1536, Control_c, 3, 93, 0
4, 1536, End_track
0, 0, End_of_file
