0, 0, Header, 1, 3, 96
1, 0, Start_track
1, 0, Time_signature, 4, 2, 24, 8
1, 0, End_track
2, 0, Start_track
2, 0, Tempo, 545455
2, 0, Tempo, 545455
2, 0, Tempo, 545455
2, 8147, Tempo, 550459
2, 8195, Tempo, 555556
2, 8243, Tempo, 560748
2, 8291, Tempo, 566038
2, 8347, Tempo, 571429
2, 8395, Tempo, 576923
2, 8443, Tempo, 582524
2, 8491, Tempo, 588235
2, 8547, Tempo, 594059
2, 8595, Tempo, 600000
2, 8643, Tempo, 606061
2, 8691, Tempo, 612245
2, 8747, Tempo, 618557
2, 8795, Tempo, 625000
2, 8795, End_track
3, 0, Start_track
3, 0, Title_t, "Channel #4"
3, 0, Control_c, 3, 10, 64
3, 0, Control_c, 3, 7, 100
3, 0, Pitch_bend_c, 3, 8192
3, 0, Control_c, 3, 101, 0
3, 0, Control_c, 3, 100, 0
3, 0, Control_c, 3, 6, 12
3, 0, Control_c, 3, 10, 64
3, 0, Control_c, 3, 7, 100
3, 0, Pitch_bend_c, 3, 8192
3, 0, Program_c, 3, 0
3, 0, Control_c, 3, 91, 40
3, 0, Control_c, 3, 93, 0
3, 0, Control_c, 3, 101, 0
3, 0, Control_c, 3, 100, 0
3, 0, Control_c, 3, 6, 12
3, 0, Control_c, 3, 10, 64
3, 0, Control_c, 3, 7, 100
3, 0, Pitch_bend_c, 3, 8192
3, 0, Program_c, 3, 0
3, 0, Control_c, 3, 91, 40
3, 0, Control_c, 3, 93, 0
3, 0, Control_c, 3, 101, 0
3, 0, Control_c, 3, 100, 0
3, 0, Control_c, 3, 6, 12
3, 0, Control_c, 3, 10, 64
3, 0, Control_c, 3, 7, 100
3, 0, Pitch_bend_c, 3, 8192
3, 0, Program_c, 3, 0
3, 0, Control_c, 3, 91, 40
3, 0, Control_c, 3, 93, 0
3, 0, Note_on_c, 3, 74, 113
3, 101, Program_c, 3, 0
3, 104, Control_c, 3, 7, 100
3, 104, Control_c, 3, 10, 64
3, 105, Control_c, 3, 91, 40
3, 105, Control_c, 3, 93, 0
3, 144, Note_on_c, 3, 72, 102
3, 148, Note_off_c, 3, 74, 0
3, 192, Note_on_c, 3, 71, 93
3, 202, Note_off_c, 3, 72, 0
3, 240, Note_on_c, 3, 72, 85
3, 244, Note_off_c, 3, 71, 0
3, 288, Note_on_c, 3, 74, 93
3, 292, Note_off_c, 3, 72, 0
3, 352, Note_off_c, 3, 74, 0
3, 384, Note_on_c, 3, 72, 98
3, 480, Note_off_c, 3, 72, 0
3, 480, Note_on_c, 3, 71, 93
3, 576, Note_on_c, 3, 69, 98
3, 585, Note_off_c, 3, 71, 0
3, 672, Note_on_c, 3, 67, 89
3, 676, Note_off_c, 3, 69, 0
3, 717, Note_off_c, 3, 67, 0
3, 768, Note_on_c, 3, 74, 62
3, 900, Note_off_c, 3, 74, 0
3, 912, Note_on_c, 3, 72, 60
3, 960, Note_on_c, 3, 71, 56
3, 964, Note_off_c, 3, 72, 0
3, 1008, Note_on_c, 3, 72, 62
3, 1016, Note_off_c, 3, 71, 0
3, 1056, Note_on_c, 3, 74, 76
3, 1066, Note_off_c, 3, 72, 0
3, 1124, Note_off_c, 3, 74, 0
3, 1152, Note_on_c, 3, 72, 62
3, 1248, Note_on_c, 3, 69, 57
3, 1264, Note_off_c, 3, 72, 0
3, 1344, Note_on_c, 3, 67, 46
3, 1364, Note_off_c, 3, 69, 0
3, 1470, Note_off_c, 3, 67, 0
3, 8832, Control_c, 3, 101, 0
3, 8832, Control_c, 3, 100, 0
3, 8832, Control_c, 3, 6, 12
3, 8832, Control_c, 3, 10, 64
3, 8832, Control_c, 3, 7, 100
3, 8832, Pitch_bend_c, 3, 8192
3, 8832, Program_c, 3, 0
3, 8832, Control_c, 3, 91, 40
3, 8832, Control_c, 3, 93, 0
3, 8832, Control_c, 3, 101, 0
3, 8832, Control_c, 3, 100, 0
3, 8832, Control_c, 3, 6, 12
3, 8832, Control_c, 3, 10, 64
3, 8832, Control_c, 3, 7, 100
3, 8832, Pitch_bend_c, 3, 8192
3, 8832, Program_c, 3, 0
3, 8832, Control_c, 3, 91, 40
3, 8832, Control_c, 3, 93, 0
3, 8832, Control_c, 3, 101, 0
3, 8832, Control_c, 3, 100, 0
3, 8832, Control_c, 3, 6, 12
3, 8832, Control_c, 3, 10, 64
3, 8832, Control_c, 3, 7, 100
3, 8832, Pitch_bend_c, 3, 8192
3, 8832, Program_c, 3, 0
3, 8832, Control_c, 3, 91, 40
3, 8832, Control_c, 3, 93, 0
3, 8832, End_track
0, 0, End_of_file
