0, 0, Header, 1, 4, 96
1, 0, Start_track
1, 0, Time_signature, 4, 2, 24, 8
1, 0, End_track
2, 0, Start_track
2, 0, Tempo, 600000
2, 0, Tempo, 600000
2, 0, Tempo, 600000
2, 0, End_track
3, 0, Start_track
3, 0, Title_t, "Channel #3"
3, 0, Control_c, 2, 10, 64
3, 0, Control_c, 2, 7, 100
3, 0, Pitch_bend_c, 2, 8192
3, 0, Control_c, 2, 101, 0
3, 0, Control_c, 2, 100, 0
3, 0, Control_c, 2, 6, 12
3, 0, Control_c, 2, 10, 64
3, 0, Control_c, 2, 7, 100
3, 0, Pitch_bend_c, 2, 8192
3, 0, Program_c, 2, 0
3, 0, Control_c, 2, 91, 40
3, 0, Control_c, 2, 93, 0
3, 0, Control_c, 2, 101, 0
3, 0, Control_c, 2, 100, 0
3, 0, Control_c, 2, 6, 12
3, 0, Control_c, 2, 10, 64
3, 0, Control_c, 2, 7, 100
3, 0, Pitch_bend_c, 2, 8192
3, 0, Program_c, 2, 0
3, 0, Control_c, 2, 91, 40
3, 0, Control_c, 2, 93, 0
3, 0, Control_c, 2, 101, 0
3, 0, Control_c, 2, 100, 0
3, 0, Control_c, 2, 6, 12
3, 0, Control_c, 2, 10, 64
3, 0, Control_c, 2, 7, 100
3, 0, Pitch_bend_c, 2, 8192
3, 0, Program_c, 2, 0
3, 0, Control_c, 2, 91, 40
3, 0, Control_c, 2, 93, 0
3, 96, Program_c, 2, 0
3, 99, Control_c, 2, 7, 100
3, 99, Control_c, 2, 10, 64
3, 100, Control_c, 2, 91, 40
3, 100, Control_c, 2, 93, 0
3, 1152, Note_on_c, 2, 62, 72
3, 1248, Note_on_c, 2, 60, 58
3, 1252, Note_off_c, 2, 62, 0
3, 1344, Note_on_c, 2, 59, 80
3, 1346, Note_off_c, 2, 60, 0
3, 1440, Note_on_c, 2, 60, 74
3, 1444, Note_off_c, 2, 59, 0
3, 1536, Note_on_c, 2, 59, 80
3, 1553, Note_off_c, 2, 60, 0
3, 1632, Note_on_c, 2, 57, 86
3, 1640, Note_off_c, 2, 59, 0
3, 1732, Note_off_c, 2, 57, 0
3, 1920, Control_c, 2, 101, 0
3, 1920, Control_c, 2, 100, 0
3, 1920, Control_c, 2, 6, 12
3, 1920, Control_c, 2, 10, 64
3, 1920, Control_c, 2, 7, 100
3, 1920, Pitch_bend_c, 2, 8192
3, 1920, Program_c, 2, 0
3, 1920, Control_c, 2, 91, 40
3, 1920, Control_c, 2, 93, 0
3, 1920, Control_c, 2, 101, 0
3, 1920, Control_c, 2, 100, 0
3, 1920, Control_c, 2, 6, 12
3, 1920, Control_c, 2, 10, 64
3, 1920, Control_c, 2, 7, 100
3, 1920, Pitch_bend_c, 2, 8192
3, 1920, Program_c, 2, 0
3, 1920, Control_c, 2, 91, 40
3, 1920, Control_c, 2, 93, 0
3, 1920, Control_c, 2, 101, 0
3, 1920, Control_c, 2, 100, 0
3, 1920, Control_c, 2, 6, 12
3, 1920, Control_c, 2, 10, 64
3, 1920, Control_c, 2, 7, 100
3, 1920, Pitch_bend_c, 2, 8192
3, 1920, Program_c, 2, 0
3, 1920, Control_c, 2, 91, 40
3, 1920, Control_c, 2, 93, 0
3, 1920, End_track
4, 0, Start_track
4, 0, Title_t, "Channel #4"
4, 0, Control_c, 3, 10, 64
4, 0, Control_c, 3, 7, 100
4, 0, Pitch_bend_c, 3, 8192
4, 0, Control_c, 3, 101, 0
4, 0, Control_c, 3, 100, 0
4, 0, Control_c, 3, 6, 12
4, 0, Control_c, 3, 10, 64
4, 0, Control_c, 3, 7, 100
4, 0, Pitch_bend_c, 3, 8192
4, 0, Program_c, 3, 0
4, 0, Control_c, 3, 91, 40
4, 0, Control_c, 3, 93, 0
4, 0, Control_c, 3, 101, 0
4, 0, Control_c, 3, 100, 0
4, 0, Control_c, 3, 6, 12
4, 0, Control_c, 3, 10, 64
4, 0, Control_c, 3, 7, 100
4, 0, Pitch_bend_c, 3, 8192
4, 0, Program_c, 3, 0
4, 0, Control_c, 3, 91, 40
4, 0, Control_c, 3, 93, 0
4, 0, Control_c, 3, 101, 0
4, 0, Control_c, 3, 100, 0
4, 0, Control_c, 3, 6, 12
4, 0, Control_c, 3, 10, 64
4, 0, Control_c, 3, 7, 100
4, 0, Pitch_bend_c, 3, 8192
4, 0, Program_c, 3, 0
4, 0, Control_c, 3, 91, 40
4, 0, Control_c, 3, 93, 0
4, 0, Note_on_c, 3, 67, 96
4, 96, Note_on_c, 3, 69, 91
4, 100, Note_off_c, 3, 67, 0
4, 101, Program_c, 3, 0
4, 104, Control_c, 3, 7, 100
4, 104, Control_c, 3, 10, 64
4, 105, Control_c, 3, 91, 40
4, 105, Control_c, 3, 93, 0
4, 192, Note_on_c, 3, 71, 94
4, 196, Note_off_c, 3, 69, 0
4, 276, Note_off_c, 3, 71, 0
4, 288, Note_on_c, 3, 71, 111
4, 384, Note_on_c, 3, 69, 104
4, 392, Note_off_c, 3, 71, 0
4, 477, Note_off_c, 3, 69, 0
4, 480, Note_on_c, 3, 67, 105
4, 576, Note_on_c, 3, 69, 109
4, 586, Note_off_c, 3, 67, 0
4, 672, Note_on_c, 3, 71, 117
4, 676, Note_off_c, 3, 69, 0
4, 768, Note_on_c, 3, 72, 109
4, 776, Note_off_c, 3, 71, 0
4, 864, Note_on_c, 3, 74, 123
4, 870, Note_off_c, 3, 72, 0
4, 1121, Note_off_c, 3, 74, 0
4, 1920, Control_c, 3, 101, 0
4, 1920, Control_c, 3, 100, 0
4, 1920, Control_c, 3, 6, 12
4, 1920, Control_c, 3, 10, 64
4, 1920, Control_c, 3, 7, 100
4, 1920, Pitch_bend_c, 3, 8192
4, 1920, Program_c, 3, 0
4, 1920, Control_c, 3, 91, 40
4, 1920, Control_c, 3, 93, 0
4, 1920, Control_c, 3, 101, 0
4, 1920, Control_c, 3, 100, 0
4, 1920, Control_c, 3, 6, 12
4, 1920, Control_c, 3, 10, 64
4, 1920, Control_c, 3, 7, 100
4, 1920, Pitch_bend_c, 3, 8192
4, 1920, Program_c, 3, 0
4, 1920, Control_c, 3, 91, 40
4, 1920, Control_c, 3, 93, 0
4, 1920, Control_c, 3, 101, 0
4, 1920, Control_c, 3, 100, 0
4, 1920, Control_c, 3, 6, 12
4, 1920, Control_c, 3, 10, 64
4, 1920, Control_c, 3, 7, 100
4, 1920, Pitch_bend_c, 3, 8192
4, 1920, Program_c, 3, 0
4, 1920, Control_c, 3, 91, 40
4, 1920, Control_c, 3, 93, 0
4, 1920, End_track
0, 0, End_of_file
