0, 0, Header, 1, 3, 96
1, 0, Start_track
1, 0, Time_signature, 4, 2, 24, 8
1, 0, End_track
2, 0, Start_track
2, 0, Tempo, 535714
2, 0, Tempo, 535714
2, 0, Tempo, 535714
2, 0, End_track
3, 0, Start_track
3, 0, Title_t, "Channel #4"
3, 0, Control_c, 3, 10, 64
3, 0, Control_c, 3, 7, 100
3, 0, Pitch_bend_c, 3, 8192
3, 0, Control_c, 3, 101, 0
3, 0, Control_c, 3, 100, 0
3, 0, Control_c, 3, 6, 12
3, 0, Control_c, 3, 10, 64
3, 0, Control_c, 3, 7, 100
3, 0, Pitch_bend_c, 3, 8192
3, 0, Program_c, 3, 0
3, 0, Control_c, 3, 91, 40
3, 0, Control_c, 3, 93, 0
3, 0, Control_c, 3, 101, 0
3, 0, Control_c, 3, 100, 0
3, 0, Control_c, 3, 6, 12
3, 0, Control_c, 3, 10, 64
3, 0, Control_c, 3, 7, 100
3, 0, Pitch_bend_c, 3, 8192
3, 0, Program_c, 3, 0
3, 0, Control_c, 3, 91, 40
3, 0, Control_c, 3, 93, 0
3, 0, Control_c, 3, 101, 0
3, 0, Control_c, 3, 100, 0
3, 0, Control_c, 3, 6, 12
3, 0, Control_c, 3, 10, 64
3, 0, Control_c, 3, 7, 100
3, 0, Pitch_bend_c, 3, 8192
3, 0, Program_c, 3, 0
3, 0, Control_c, 3, 91, 40
3, 0, Control_c, 3, 93, 0
3, 101, Program_c, 3, 0
3, 104, Control_c, 3, 7, 100
3, 104, Control_c, 3, 10, 64
3, 105, Control_c, 3, 91, 40
3, 105, Control_c, 3, 93, 0
3, 1152, Note_on_c, 3, 72, 91
3, 1344, Note_on_c, 3, 69, 89
3, 1345, Note_off_c, 3, 72, 0
3, 1536, Note_on_c, 3, 65, 86
3, 1544, Note_off_c, 3, 69, 0
3, 1632, Note_on_c, 3, 67, 91
3, 1636, Note_off_c, 3, 65, 0
3, 1728, Note_on_c, 3, 69, 95
3, 1732, Note_off_c, 3, 67, 0
3, 1824, Note_on_c, 3, 70, 84
3, 1833, Note_off_c, 3, 69, 0
3, 1920, Note_on_c, 3, 72, 97
3, 1924, Note_off_c, 3, 70, 0
3, 2112, Note_on_c, 3, 69, 92
3, 2120, Note_off_c, 3, 72, 0
3, 2304, Note_on_c, 3, 72, 98
3, 2316, Note_off_c, 3, 69, 0
3, 2644, Note_off_c, 3, 72, 0
3, 2688, Note_on_c, 3, 72, 99
3, 2880, Note_on_c, 3, 69, 86
3, 2886, Note_off_c, 3, 72, 0
3, 3072, Note_on_c, 3, 65, 77
3, 3086, Note_off_c, 3, 69, 0
3, 3165, Note_off_c, 3, 65, 0
3, 3168, Note_on_c, 3, 67, 83
3, 3264, Note_on_c, 3, 69, 88
3, 3269, Note_off_c, 3, 67, 0
3, 3360, Note_on_c, 3, 70, 79
3, 3368, Note_off_c, 3, 69, 0
3, 3456, Note_on_c, 3, 72, 97
3, 3465, Note_off_c, 3, 70, 0
3, 3652, Note_off_c, 3, 72, 0
3, 3840, Control_c, 3, 101, 0
3, 3840, Control_c, 3, 100, 0
3, 3840, Control_c, 3, 6, 12
3, 3840, Control_c, 3, 10, 64
3, 3840, Control_c, 3, 7, 100
3, 3840, Pitch_bend_c, 3, 8192
3, 3840, Program_c, 3, 0
3, 3840, Control_c, 3, 91, 40
3, 3840, Control_c, 3, 93, 0
3, 3840, Control_c, 3, 101, 0
3, 3840, Control_c, 3, 100, 0
3, 3840, Control_c, 3, 6, 12
3, 3840, Control_c, 3, 10, 64
3, 3840, Control_c, 3, 7, 100
3, 3840, Pitch_bend_c, 3, 8192
3, 3840, Program_c, 3, 0
3, 3840, Control_c, 3, 91, 40
3, 3840, Control_c, 3, 93, 0
3, 3840, Control_c, 3, 101, 0
3, 3840, Control_c, 3, 100, 0
3, 3840, Control_c, 3, 6, 12
3, 3840, Control_c, 3, 10, 64
3, 3840, Control_c, 3, 7, 100
3, 3840, Pitch_bend_c, 3, 8192
3, 3840, Program_c, 3, 0
3, 3840, Control_c, 3, 91, 40
3, 3840, Control_c, 3, 93, 0
3, 3840, End_track
0, 0, End_of_file
