0, 0, Header, 1, 4, 96
1, 0, Start_track
1, 0, Time_signature, 4, 2, 24, 8
1, 0, End_track
2, 0, Start_track
2, 0, Tempo, 545455
2, 0, Tempo, 545455
2, 0, Tempo, 545455
2, 0, End_track
3, 0, Start_track
3, 0, Title_t, "Channel #3"
3, 0, Control_c, 2, 10, 64
3, 0, Control_c, 2, 7, 100
3, 0, Pitch_bend_c, 2, 8192
3, 0, Control_c, 2, 101, 0
3, 0, Control_c, 2, 100, 0
3, 0, Control_c, 2, 6, 12
3, 0, Control_c, 2, 10, 64
3, 0, Control_c, 2, 7, 100
3, 0, Pitch_bend_c, 2, 8192
3, 0, Program_c, 2, 0
3, 0, Control_c, 2, 91, 40
3, 0, Control_c, 2, 93, 0
3, 0, Control_c, 2, 101, 0
3, 0, Control_c, 2, 100, 0
3, 0, Control_c, 2, 6, 12
3, 0, Control_c, 2, 10, 64
3, 0, Control_c, 2, 7, 100
3, 0, Pitch_bend_c, 2, 8192
3, 0, Program_c, 2, 0
3, 0, Control_c, 2, 91, 40
3, 0, Control_c, 2, 93, 0
3, 0, Control_c, 2, 101, 0
3, 0, Control_c, 2, 100, 0
3, 0, Control_c, 2, 6, 12
3, 0, Control_c, 2, 10, 64
3, 0, Control_c, 2, 7, 100
3, 0, Pitch_bend_c, 2, 8192
3, 0, Program_c, 2, 0
3, 0, Control_c, 2, 91, 40
3, 0, Control_c, 2, 93, 0
3, 96, Program_c, 2, 0
3, 99, Control_c, 2, 7, 100
3, 99, Control_c, 2, 10, 64
3, 100, Control_c, 2, 91, 40
3, 100, Control_c, 2, 93, 0
3, 1152, Note_on_c, 2, 48, 77
3, 1248, Note_off_c, 2, 48, 0
3, 1248, Note_on_c, 2, 55, 77
3, 1344, Note_off_c, 2, 55, 0
3, 1920, Note_on_c, 2, 50, 84
3, 2016, Note_on_c, 2, 57, 80
3, 2018, Note_off_c, 2, 50, 0
3, 2108, Note_off_c, 2, 57, 0
3, 2688, Note_on_c, 2, 52, 80
3, 2777, Note_off_c, 2, 52, 0
3, 2784, Note_on_c, 2, 59, 80
3, 2877, Note_off_c, 2, 59, 0
3, 3456, Note_on_c, 2, 53, 76
3, 3552, Note_on_c, 2, 60, 74
3, 3557, Note_off_c, 2, 53, 0
3, 3649, Note_off_c, 2, 60, 0
3, 3840, Control_c, 2, 101, 0
3, 3840, Control_c, 2, 100, 0
3, 3840, Control_c, 2, 6, 12
3, 3840, Control_c, 2, 10, 64
3, 3840, Control_c, 2, 7, 100
3, 3840, Pitch_bend_c, 2, 8192
3, 3840, Program_c, 2, 0
3, 3840, Control_c, 2, 91, 40
3, 3840, Control_c, 2, 93, 0
3, 3840, Control_c, 2, 101, 0
3, 3840, Control_c, 2, 100, 0
3, 3840, Control_c, 2, 6, 12
3, 3840, Control_c, 2, 10, 64
3, 3840, Control_c, 2, 7, 100
3, 3840, Pitch_bend_c, 2, 8192
3, 3840, Program_c, 2, 0
3, 3840, Control_c, 2, 91, 40
3, 3840, Control_c, 2, 93, 0
3, 3840, Control_c, 2, 101, 0
3, 3840, Control_c, 2, 100, 0
3, 3840, Control_c, 2, 6, 12
3, 3840, Control_c, 2, 10, 64
3, 3840, Control_c, 2, 7, 100
3, 3840, Pitch_bend_c, 2, 8192
3, 3840, Program_c, 2, 0
3, 3840, Control_c, 2, 91, 40
3, 3840, Control_c, 2, 93, 0
3, 3840, End_track
4, 0, Start_track
4, 0, Title_t, "Channel #4"
4, 0, Control_c, 3, 10, 64
4, 0, Control_c, 3, 7, 100
4, 0, Pitch_bend_c, 3, 8192
4, 0, Control_c, 3, 101, 0
4, 0, Control_c, 3, 100, 0
4, 0, Control_c, 3, 6, 12
4, 0, Control_c, 3, 10, 64
4, 0, Control_c, 3, 7, 100
4, 0, Pitch_bend_c, 3, 8192
4, 0, Program_c, 3, 0
4, 0, Control_c, 3, 91, 40
4, 0, Control_c, 3, 93, 0
4, 0, Control_c, 3, 101, 0
4, 0, Control_c, 3, 100, 0
4, 0, Control_c, 3, 6, 12
4, 0, Control_c, 3, 10, 64
4, 0, Control_c, 3, 7, 100
4, 0, Pitch_bend_c, 3, 8192
4, 0, Program_c, 3, 0
4, 0, Control_c, 3, 91, 40
4, 0, Control_c, 3, 93, 0
4, 0, Control_c, 3, 101, 0
4, 0, Control_c, 3, 100, 0
4, 0, Control_c, 3, 6, 12
4, 0, Control_c, 3, 10, 64
4, 0, Control_c, 3, 7, 100
4, 0, Pitch_bend_c, 3, 8192
4, 0, Program_c, 3, 0
4, 0, Control_c, 3, 91, 40
4, 0, Control_c, 3, 93, 0
4, 101, Program_c, 3, 0
4, 104, Control_c, 3, 7, 100
4, 104, Control_c, 3, 10, 64
4, 105, Control_c, 3, 91, 40
4, 105, Control_c, 3, 93, 0
4, 1344, Note_on_c, 3, 67, 77
4, 1440, Note_on_c, 3, 60, 80
4, 1445, Note_off_c, 3, 67, 0
4, 1532, Note_off_c, 3, 60, 0
4, 2112, Note_on_c, 3, 69, 80
4, 2208, Note_on_c, 3, 62, 78
4, 2214, Note_off_c, 3, 69, 0
4, 2306, Note_off_c, 3, 62, 0
4, 2880, Note_on_c, 3, 71, 83
4, 2974, Note_off_c, 3, 71, 0
4, 2976, Note_on_c, 3, 64, 81
4, 3068, Note_off_c, 3, 64, 0
4, 3648, Note_on_c, 3, 72, 86
4, 3738, Note_off_c, 3, 72, 0
4, 3744, Note_on_c, 3, 65, 80
4, 3820, Note_off_c, 3, 65, 0
4, 3840, Control_c, 3, 101, 0
4, 3840, Control_c, 3, 100, 0
4, 3840, Control_c, 3, 6, 12
4, 3840, Control_c, 3, 10, 64
4, 3840, Control_c, 3, 7, 100
4, 3840, Pitch_bend_c, 3, 8192
4, 3840, Program_c, 3, 0
4, 3840, Control_c, 3, 91, 40
4, 3840, Control_c, 3, 93, 0
4, 3840, Control_c, 3, 101, 0
4, 3840, Control_c, 3, 100, 0
4, 3840, Control_c, 3, 6, 12
4, 3840, Control_c, 3, 10, 64
4, 3840, Control_c, 3, 7, 100
4, 3840, Pitch_bend_c, 3, 8192
4, 3840, Program_c, 3, 0
4, 3840, Control_c, 3, 91, 40
4, 3840, Control_c, 3, 93, 0
4, 3840, Control_c, 3, 101, 0
4, 3840, Control_c, 3, 100, 0
4, 3840, Control_c, 3, 6, 12
4, 3840, Control_c, 3, 10, 64
4, 3840, Control_c, 3, 7, 100
4, 3840, Pitch_bend_c, 3, 8192
4, 3840, Program_c, 3, 0
4, 3840, Control_c, 3, 91, 40
4, 3840, Control_c, 3, 93, 0
4, 3840, End_track
0, 0, End_of_file
