0, 0, Header, 1, 3, 96
1, 0, Start_track
1, 0, Time_signature, 4, 2, 24, 8
1, 0, End_track
2, 0, Start_track
2, 0, Tempo, 600000
2, 0, Tempo, 600000
2, 0, Tempo, 600000
2, 3680, Tempo, 594059
2, 3692, Tempo, 600000
2, 3731, Tempo, 606061
2, 3782, Tempo, 612245
2, 3820, Tempo, 618557
2, 3859, Tempo, 625000
2, 3910, Tempo, 631579
2, 3948, Tempo, 638298
2, 3987, Tempo, 645161
2, 4025, Tempo, 652174
2, 4076, Tempo, 659341
2, 4115, Tempo, 666667
2, 4166, Tempo, 674157
2, 4204, Tempo, 681818
2, 4204, End_track
3, 0, Start_track
3, 0, Title_t, "Channel #4"
3, 0, Control_c, 3, 10, 64
3, 0, Control_c, 3, 7, 100
3, 0, Pitch_bend_c, 3, 8192
3, 0, Control_c, 3, 101, 0
3, 0, Control_c, 3, 100, 0
3, 0, Control_c, 3, 6, 12
3, 0, Control_c, 3, 10, 64
3, 0, Control_c, 3, 7, 100
3, 0, Pitch_bend_c, 3, 8192
3, 0, Program_c, 3, 0
3, 0, Control_c, 3, 91, 40
3, 0, Control_c, 3, 93, 0
3, 0, Control_c, 3, 101, 0
3, 0, Control_c, 3, 100, 0
3, 0, Control_c, 3, 6, 12
3, 0, Control_c, 3, 10, 64
3, 0, Control_c, 3, 7, 100
3, 0, Pitch_bend_c, 3, 8192
3, 0, Program_c, 3, 0
3, 0, Control_c, 3, 91, 40
3, 0, Control_c, 3, 93, 0
3, 0, Control_c, 3, 101, 0
3, 0, Control_c, 3, 100, 0
3, 0, Control_c, 3, 6, 12
3, 0, Control_c, 3, 10, 64
3, 0, Control_c, 3, 7, 100
3, 0, Pitch_bend_c, 3, 8192
3, 0, Program_c, 3, 0
3, 0, Control_c, 3, 91, 40
3, 0, Control_c, 3, 93, 0
3, 0, Note_on_c, 3, 62, 74
3, 96, Note_on_c, 3, 66, 73
3, 100, Note_off_c, 3, 62, 0
3, 101, Program_c, 3, 0
3, 104, Control_c, 3, 7, 100
3, 104, Control_c, 3, 10, 64
3, 105, Control_c, 3, 91, 40
3, 105, Control_c, 3, 93, 0
3, 192, Note_on_c, 3, 69, 82
3, 208, Note_off_c, 3, 66, 0
3, 272, Note_off_c, 3, 69, 0
3, 288, Note_on_c, 3, 69, 74
3, 384, Note_on_c, 3, 64, 80
3, 386, Note_off_c, 3, 69, 0
3, 480, Note_on_c, 3, 66, 67
3, 488, Note_off_c, 3, 64, 0
3, 576, Note_on_c, 3, 67, 78
3, 588, Note_off_c, 3, 66, 0
3, 672, Note_off_c, 3, 67, 0
3, 672, Note_on_c, 3, 67, 78
3, 761, Note_off_c, 3, 67, 0
3, 768, Note_on_c, 3, 62, 76
3, 864, Note_on_c, 3, 66, 74
3, 876, Note_off_c, 3, 62, 0
3, 960, Note_on_c, 3, 69, 80
3, 969, Note_off_c, 3, 66, 0
3, 1041, Note_off_c, 3, 69, 0
3, 1056, Note_on_c, 3, 69, 71
3, 1152, Note_on_c, 3, 67, 79
3, 1164, Note_off_c, 3, 69, 0
3, 1248, Note_on_c, 3, 66, 74
3, 1252, Note_off_c, 3, 67, 0
3, 1344, Note_on_c, 3, 64, 80
3, 1360, Note_off_c, 3, 66, 0
3, 1440, Note_off_c, 3, 64, 0
3, 1440, Note_on_c, 3, 64, 80
3, 1500, Note_off_c, 3, 64, 0
3, 4224, Control_c, 3, 101, 0
3, 4224, Control_c, 3, 100, 0
3, 4224, Control_c, 3, 6, 12
3, 4224, Control_c, 3, 10, 64
3, 4224, Control_c, 3, 7, 100
3, 4224, Pitch_bend_c, 3, 8192
3, 4224, Program_c, 3, 0
3, 4224, Control_c, 3, 91, 40
3, 4224, Control_c, 3, 93, 0
3, 4224, Control_c, 3, 101, 0
3, 4224, Control_c, 3, 100, 0
3, 4224, Control_c, 3, 6, 12
3, 4224, Control_c, 3, 10, 64
3, 4224, Control_c, 3, 7, 100
3, 4224, Pitch_bend_c, 3, 8192
3, 4224, Program_c, 3, 0
3, 4224, Control_c, 3, 91, 40
3, 4224, Control_c, 3, 93, 0
3, 4224, Control_c, 3, 101, 0
3, 4224, Control_c, 3, 100, 0
3, 4224, Control_c, 3, 6, 12
3, 4224, Control_c, 3, 10, 64
3, 4224, Control_c, 3, 7, 100
3, 4224, Pitch_bend_c, 3, 8192
3, 4224, Program_c, 3, 0
3, 4224, Control_c, 3, 91, 40
3, 4224, Control_c, 3, 93, 0
3, 4224, End_track
0, 0, End_of_file
