0, 0, Header, 1, 3, 96
1, 0, Start_track
1, 0, Time_signature, 4, 2, 24, 8
1, 0, End_track
2, 0, Start_track
2, 0, Tempo, 750000
2, 0, Tempo, 750000
2, 0, Tempo, 750000
2, 2764, Tempo, 759494
2, 2816, Tempo, 769231
2, 2854, Tempo, 779221
2, 2892, Tempo, 789474
2, 2931, Tempo, 800000
2, 2982, Tempo, 810811
2, 3020, Tempo, 821918
2, 3072, Tempo, 833333
2, 3110, Tempo, 845070
2, 3148, Tempo, 857143
2, 3148, End_track
3, 0, Start_track
3, 0, Title_t, "Channel #4"
3, 0, Control_c, 3, 10, 64
3, 0, Control_c, 3, 7, 100
3, 0, Pitch_bend_c, 3, 8192
3, 0, Control_c, 3, 101, 0
3, 0, Control_c, 3, 100, 0
3, 0, Control_c, 3, 6, 12
3, 0, Control_c, 3, 10, 64
3, 0, Control_c, 3, 7, 100
3, 0, Pitch_bend_c, 3, 8192
3, 0, Program_c, 3, 0
3, 0, Control_c, 3, 91, 40
3, 0, Control_c, 3, 93, 0
3, 0, Control_c, 3, 101, 0
3, 0, Control_c, 3, 100, 0
3, 0, Control_c, 3, 6, 12
3, 0, Control_c, 3, 10, 64
3, 0, Control_c, 3, 7, 100
3, 0, Pitch_bend_c, 3, 8192
3, 0, Program_c, 3, 0
3, 0, Control_c, 3, 91, 40
3, 0, Control_c, 3, 93, 0
3, 0, Control_c, 3, 101, 0
3, 0, Control_c, 3, 100, 0
3, 0, Control_c, 3, 6, 12
3, 0, Control_c, 3, 10, 64
3, 0, Control_c, 3, 7, 100
3, 0, Pitch_bend_c, 3, 8192
3, 0, Program_c, 3, 0
3, 0, Control_c, 3, 91, 40
3, 0, Control_c, 3, 93, 0
3, 0, Note_on_c, 3, 71, 76
3, 48, Note_on_c, 3, 72, 87
3, 52, Note_off_c, 3, 71, 0
3, 96, Note_on_c, 3, 74, 80
3, 97, Note_off_c, 3, 72, 0
3, 101, Program_c, 3, 0
3, 104, Control_c, 3, 7, 100
3, 104, Control_c, 3, 10, 64
3, 105, Control_c, 3, 91, 40
3, 105, Control_c, 3, 93, 0
3, 136, Note_off_c, 3, 74, 0
3, 144, Note_on_c, 3, 74, 81
3, 192, Note_on_c, 3, 72, 85
3, 196, Note_off_c, 3, 74, 0
3, 240, Note_on_c, 3, 71, 79
3, 244, Note_off_c, 3, 72, 0
3, 288, Note_on_c, 3, 69, 72
3, 292, Note_off_c, 3, 71, 0
3, 329, Note_off_c, 3, 69, 0
3, 336, Note_on_c, 3, 69, 82
3, 384, Note_on_c, 3, 71, 79
3, 388, Note_off_c, 3, 69, 0
3, 432, Note_on_c, 3, 72, 80
3, 438, Note_off_c, 3, 71, 0
3, 554, Note_off_c, 3, 72, 0
3, 576, Note_on_c, 3, 74, 82
3, 654, Note_off_c, 3, 74, 0
3, 672, Note_on_c, 3, 74, 68
3, 720, Note_on_c, 3, 72, 77
3, 724, Note_off_c, 3, 74, 0
3, 768, Note_off_c, 3, 72, 0
3, 768, Note_on_c, 3, 71, 73
3, 816, Note_on_c, 3, 69, 77
3, 820, Note_off_c, 3, 71, 0
3, 864, Note_off_c, 3, 69, 0
3, 864, Note_on_c, 3, 67, 73
3, 1176, Note_off_c, 3, 67, 0
3, 3456, Control_c, 3, 101, 0
3, 3456, Control_c, 3, 100, 0
3, 3456, Control_c, 3, 6, 12
3, 3456, Control_c, 3, 10, 64
3, 3456, Control_c, 3, 7, 100
3, 3456, Pitch_bend_c, 3, 8192
3, 3456, Program_c, 3, 0
3, 3456, Control_c, 3, 91, 40
3, 3456, Control_c, 3, 93, 0
3, 3456, Control_c, 3, 101, 0
3, 3456, Control_c, 3, 100, 0
3, 3456, Control_c, 3, 6, 12
3, 3456, Control_c, 3, 10, 64
3, 3456, Control_c, 3, 7, 100
3, 3456, Pitch_bend_c, 3, 8192
3, 3456, Program_c, 3, 0
3, 3456, Control_c, 3, 91, 40
3, 3456, Control_c, 3, 93, 0
3, 3456, Control_c, 3, 101, 0
3, 3456, Control_c, 3, 100, 0
3, 3456, Control_c, 3, 6, 12
3, 3456, Control_c, 3, 10, 64
3, 3456, Control_c, 3, 7, 100
3, 3456, Pitch_bend_c, 3, 8192
3, 3456, Program_c, 3, 0
3, 3456, Control_c, 3, 91, 40
3, 3456, Control_c, 3, 93, 0
3, 3456, End_track
0, 0, End_of_file
