0, 0, Header, 1, 4, 96
1, 0, Start_track
1, 0, Time_signature, 4, 2, 24, 8
1, 0, End_track
2, 0, Start_track
2, 0, Tempo, 600000
2, 0, Tempo, 600000
2, 0, Tempo, 600000
2, 0, End_track
3, 0, Start_track
3, 0, Title_t, "Channel #3"
3, 0, Control_c, 2, 10, 64
3, 0, Control_c, 2, 7, 100
3, 0, Pitch_bend_c, 2, 8192
3, 0, Control_c, 2, 101, 0
3, 0, Control_c, 2, 100, 0
3, 0, Control_c, 2, 6, 12
3, 0, Control_c, 2, 10, 64
3, 0, Control_c, 2, 7, 100
3, 0, Pitch_bend_c, 2, 8192
3, 0, Program_c, 2, 0
3, 0, Control_c, 2, 91, 40
3, 0, Control_c, 2, 93, 0
3, 0, Control_c, 2, 101, 0
3, 0, Control_c, 2, 100, 0
3, 0, Control_c, 2, 6, 12
3, 0, Control_c, 2, 10, 64
3, 0, Control_c, 2, 7, 100
3, 0, Pitch_bend_c, 2, 8192
3, 0, Program_c, 2, 0
3, 0, Control_c, 2, 91, 40
3, 0, Control_c, 2, 93, 0
3, 0, Control_c, 2, 101, 0
3, 0, Control_c, 2, 100, 0
3, 0, Control_c, 2, 6, 12
3, 0, Control_c, 2, 10, 64
3, 0, Control_c, 2, 7, 100
3, 0, Pitch_bend_c, 2, 8192
3, 0, Program_c, 2, 0
3, 0, Control_c, 2, 91, 40
3, 0, Control_c, 2, 93, 0
3, 96, Program_c, 2, 0
3, 99, Control_c, 2, 7, 100
3, 99, Control_c, 2, 10, 64
3, 100, Control_c, 2, 91, 40
3, 100, Control_c, 2, 93, 0
3, 384, Note_on_c, 2, 50, 68
3, 432, Note_off_c, 2, 50, 0
3, 432, Note_on_c, 2, 52, 64
3, 480, Note_on_c, 2, 54, 69
3, 485, Note_off_c, 2, 52, 0
3, 528, Note_on_c, 2, 55, 70
3, 536, Note_off_c, 2, 54, 0
3, 576, Note_on_c, 2, 57, 76
3, 581, Note_off_c, 2, 55, 0
3, 624, Note_on_c, 2, 55, 71
3, 628, Note_off_c, 2, 57, 0
3, 672, Note_on_c, 2, 54, 80
3, 676, Note_off_c, 2, 55, 0
3, 720, Note_on_c, 2, 52, 67
3, 724, Note_off_c, 2, 54, 0
3, 773, Note_off_c, 2, 52, 0
3, 1152, Control_c, 2, 101, 0
3, 1152, Control_c, 2, 100, 0
3, 1152, Control_c, 2, 6, 12
3, 1152, Control_c, 2, 10, 64
3, 1152, Control_c, 2, 7, 100
3, 1152, Pitch_bend_c, 2, 8192
3, 1152, Program_c, 2, 0
3, 1152, Control_c, 2, 91, 40
3, 1152, Control_c, 2, 93, 0
3, 1152, Control_c, 2, 101, 0
3, 1152, Control_c, 2, 100, 0
3, 1152, Control_c, 2, 6, 12
3, 1152, Control_c, 2, 10, 64
3, 1152, Control_c, 2, 7, 100
3, 1152, Pitch_bend_c, 2, 8192
3, 1152, Program_c, 2, 0
3, 1152, Control_c, 2, 91, 40
3, 1152, Control_c, 2, 93, 0
3, 1152, Control_c, 2, 101, 0
3, 1152, Control_c, 2, 100, 0
3, 1152, Control_c, 2, 6, 12
3, 1152, Control_c, 2, 10, 64
3, 1152, Control_c, 2, 7, 100
3, 1152, Pitch_bend_c, 2, 8192
3, 1152, Program_c, 2, 0
3, 1152, Control_c, 2, 91, 40
3, 1152, Control_c, 2, 93, 0
3, 1152, End_track
4, 0, Start_track
4, 0, Title_t, "Channel #4"
4, 0, Control_c, 3, 10, 64
4, 0, Control_c, 3, 7, 100
4, 0, Pitch_bend_c, 3, 8192
4, 0, Control_c, 3, 101, 0
4, 0, Control_c, 3, 100, 0
4, 0, Control_c, 3, 6, 12
4, 0, Control_c, 3, 10, 64
4, 0, Control_c, 3, 7, 100
4, 0, Pitch_bend_c, 3, 8192
4, 0, Program_c, 3, 0
4, 0, Control_c, 3, 91, 40
4, 0, Control_c, 3, 93, 0
4, 0, Control_c, 3, 101, 0
4, 0, Control_c, 3, 100, 0
4, 0, Control_c, 3, 6, 12
4, 0, Control_c, 3, 10, 64
4, 0, Control_c, 3, 7, 100
4, 0, Pitch_bend_c, 3, 8192
4, 0, Program_c, 3, 0
4, 0, Control_c, 3, 91, 40
4, 0, Control_c, 3, 93, 0
4, 0, Control_c, 3, 101, 0
4, 0, Control_c, 3, 100, 0
4, 0, Control_c, 3, 6, 12
4, 0, Control_c, 3, 10, 64
4, 0, Control_c, 3, 7, 100
4, 0, Pitch_bend_c, 3, 8192
4, 0, Program_c, 3, 0
4, 0, Control_c, 3, 91, 40
4, 0, Control_c, 3, 93, 0
4, 0, Note_on_c, 3, 62, 71
4, 48, Note_off_c, 3, 62, 0
4, 48, Note_on_c, 3, 64, 61
4, 96, Note_on_c, 3, 66, 69
4, 101, Program_c, 3, 0
4, 102, Note_off_c, 3, 64, 0
4, 104, Control_c, 3, 7, 100
4, 104, Control_c, 3, 10, 64
4, 105, Control_c, 3, 91, 40
4, 105, Control_c, 3, 93, 0
4, 144, Note_on_c, 3, 67, 72
4, 152, Note_off_c, 3, 66, 0
4, 192, Note_on_c, 3, 69, 82
4, 200, Note_off_c, 3, 67, 0
4, 240, Note_on_c, 3, 67, 81
4, 248, Note_off_c, 3, 69, 0
4, 288, Note_on_c, 3, 66, 80
4, 296, Note_off_c, 3, 67, 0
4, 336, Note_on_c, 3, 64, 76
4, 342, Note_off_c, 3, 66, 0
4, 388, Note_off_c, 3, 64, 0
4, 1152, Control_c, 3, 101, 0
4, 1152, Control_c, 3, 100, 0
4, 1152, Control_c, 3, 6, 12
4, 1152, Control_c, 3, 10, 64
4, 1152, Control_c, 3, 7, 100
4, 1152, Pitch_bend_c, 3, 8192
4, 1152, Program_c, 3, 0
4, 1152, Control_c, 3, 91, 40
4, 1152, Control_c, 3, 93, 0
4, 1152, Control_c, 3, 101, 0
4, 1152, Control_c, 3, 100, 0
4, 1152, Control_c, 3, 6, 12
4, 1152, Control_c, 3, 10, 64
4, 1152, Control_c, 3, 7, 100
4, 1152, Pitch_bend_c, 3, 8192
4, 1152, Program_c, 3, 0
4, 1152, Control_c, 3, 91, 40
4, 1152, Control_c, 3, 93, 0
4, 1152, Control_c, 3, 101, 0
4, 1152, Control_c, 3, 100, 0
4, 1152, Control_c, 3, 6, 12
4, 1152, Control_c, 3, 10, 64
4, 1152, Control_c, 3, 7, 100
4, 1152, Pitch_bend_c, 3, 8192
4, 1152, Program_c, 3, 0
4, 1152, Control_c, 3, 91, 40
4, 1152, Control_c, 3, 93, 0
4, 1152, End_track
0, 0, End_of_file
