0, 0, Header, 1, 4, 96
1, 0, Start_track
1, 0, Time_signature, 4, 2, 24, 8
1, 0, End_track
2, 0, Start_track
2, 0, Tempo, 600000
2, 0, Tempo, 600000
2, 0, Tempo, 600000
2, 0, End_track
3, 0, Start_track
3, 0, Title_t, "Channel #3"
3, 0, Control_c, 2, 10, 64
3, 0, Control_c, 2, 7, 100
3, 0, Pitch_bend_c, 2, 8192
3, 0, Control_c, 2, 101, 0
3, 0, Control_c, 2, 100, 0
3, 0, Control_c, 2, 6, 12
3, 0, Control_c, 2, 10, 64
3, 0, Control_c, 2, 7, 100
3, 0, Pitch_bend_c, 2, 8192
3, 0, Program_c, 2, 0
3, 0, Control_c, 2, 91, 40
3, 0, Control_c, 2, 93, 0
3, 0, Control_c, 2, 101, 0
3, 0, Control_c, 2, 100, 0
3, 0, Control_c, 2, 6, 12
3, 0, Control_c, 2, 10, 64
3, 0, Control_c, 2, 7, 100
3, 0, Pitch_bend_c, 2, 8192
3, 0, Program_c, 2, 0
3, 0, Control_c, 2, 91, 40
3, 0, Control_c, 2, 93, 0
3, 0, Control_c, 2, 10, 64
3, 0, Control_c, 2, 7, 100
3, 0, Pitch_bend_c, 2, 8192
3, 0, Program_c, 2, 0
3, 0, Control_c, 2, 91, 40
3, 0, Control_c, 2, 93, 0
3, 0, Control_c, 2, 101, 0
3, 0, Control_c, 2, 100, 0
3, 0, Control_c, 2, 6, 12
3, 0, Control_c, 2, 10, 64
3, 0, Control_c, 2, 7, 100
3, 0, Pitch_bend_c, 2, 8192
3, 0, Program_c, 2, 0
3, 0, Control_c, 2, 91, 40
3, 0, Control_c, 2, 93, 0
3, 0, Control_c, 2, 10, 64
3, 0, Control_c, 2, 7, 100
3, 0, Pitch_bend_c, 2, 8192
3, 0, Program_c, 2, 0
3, 0, Control_c, 2, 91, 40
3, 0, Control_c, 2, 93, 0
3, 0, Note_on_c, 2, 60, 68
3, 48, Note_off_c, 2, 60, 0
3, 48, Note_on_c, 2, 62, 64
3, 96, Note_on_c, 2, 64, 69
3, 101, Note_off_c, 2, 62, 0
3, 144, Note_on_c, 2, 65, 70
3, 152, Note_off_c, 2, 64, 0
3, 192, Note_on_c, 2, 67, 76
3, 197, Note_off_c, 2, 65, 0
3, 240, Note_on_c, 2, 65, 71
3, 244, Note_off_c, 2, 67, 0
3, 288, Note_on_c, 2, 64, 80
3, 292, Note_off_c, 2, 65, 0
3, 336, Note_on_c, 2, 62, 67
3, 340, Note_off_c, 2, 64, 0
3, 389, Note_off_c, 2, 62, 0
3, 1152, Control_c, 2, 101, 0
3, 1152, Control_c, 2, 100, 0
3, 1152, Control_c, 2, 6, 12
3, 1152, Control_c, 2, 10, 64
3, 1152, Control_c, 2, 7, 100
3, 1152, Pitch_bend_c, 2, 8192
3, 1152, Program_c, 2, 0
3, 1152, Control_c, 2, 91, 40
3, 1152, Control_c, 2, 93, 0
3, 1152, Control_c, 2, 101, 0
3, 1152, Control_c, 2, 100, 0
3, 1152, Control_c, 2, 6, 12
3, 1152, Control_c, 2, 10, 64
3, 1152, Control_c, 2, 7, 100
3, 1152, Pitch_bend_c, 2, 8192
3, 1152, Program_c, 2, 0
3, 1152, Control_c, 2, 91, 40
3, 1152, Control_c, 2, 93, 0
3, 1152, Control_c, 2, 101, 0
3, 1152, Control_c, 2, 100, 0
3, 1152, Control_c, 2, 6, 12
3, 1152, Control_c, 2, 10, 64
3, 1152, Control_c, 2, 7, 100
3, 1152, Pitch_bend_c, 2, 8192
3, 1152, Program_c, 2, 0
3, 1152, Control_c, 2, 91, 40
3, 1152, Control_c, 2, 93, 0
3, 1152, End_track
4, 0, Start_track
4, 0, Title_t, "Channel #4"
4, 0, Control_c, 3, 10, 64
4, 0, Control_c, 3, 7, 100
4, 0, Pitch_bend_c, 3, 8192
4, 0, Control_c, 3, 101, 0
4, 0, Control_c, 3, 100, 0
4, 0, Control_c, 3, 6, 12
4, 0, Control_c, 3, 10, 64
4, 0, Control_c, 3, 7, 100
4, 0, Pitch_bend_c, 3, 8192
4, 0, Program_c, 3, 0
4, 0, Control_c, 3, 91, 40
4, 0, Control_c, 3, 93, 0
4, 0, Control_c, 3, 101, 0
4, 0, Control_c, 3, 100, 0
4, 0, Control_c, 3, 6, 12
4, 0, Control_c, 3, 10, 64
4, 0, Control_c, 3, 7, 100
4, 0, Pitch_bend_c, 3, 8192
4, 0, Program_c, 3, 0
4, 0, Control_c, 3, 91, 40
4, 0, Control_c, 3, 93, 0
4, 0, Control_c, 3, 10, 64
4, 0, Control_c, 3, 7, 100
4, 0, Pitch_bend_c, 3, 8192
4, 0, Program_c, 3, 0
4, 0, Control_c, 3, 91, 40
4, 0, Control_c, 3, 93, 0
4, 0, Control_c, 3, 101, 0
4, 0, Control_c, 3, 100, 0
4, 0, Control_c, 3, 6, 12
4, 0, Control_c, 3, 10, 64
4, 0, Control_c, 3, 7, 100
4, 0, Pitch_bend_c, 3, 8192
4, 0, Program_c, 3, 0
4, 0, Control_c, 3, 91, 40
4, 0, Control_c, 3, 93, 0
4, 0, Control_c, 3, 10, 64
4, 0, Control_c, 3, 7, 100
4, 0, Pitch_bend_c, 3, 8192
4, 0, Program_c, 3, 0
4, 0, Control_c, 3, 91, 40
4, 0, Control_c, 3, 93, 0
4, 384, Note_on_c, 3, 72, 71
4, 432, Note_off_c, 3, 72, 0
4, 432, Note_on_c, 3, 74, 61
4, 480, Note_on_c, 3, 76, 69
4, 486, Note_off_c, 3, 74, 0
4, 528, Note_on_c, 3, 77, 72
4, 536, Note_off_c, 3, 76, 0
4, 576, Note_on_c, 3, 79, 82
4, 584, Note_off_c, 3, 77, 0
4, 624, Note_on_c, 3, 77, 81
4, 632, Note_off_c, 3, 79, 0
4, 672, Note_on_c, 3, 76, 80
4, 680, Note_off_c, 3, 77, 0
4, 720, Note_on_c, 3, 74, 76
4, 726, Note_off_c, 3, 76, 0
4, 772, Note_off_c, 3, 74, 0
4, 1152, Control_c, 3, 101, 0
4, 1152, Control_c, 3, 100, 0
4, 1152, Control_c, 3, 6, 12
4, 1152, Control_c, 3, 10, 64
4, 1152, Control_c, 3, 7, 100
4, 1152, Pitch_bend_c, 3, 8192
4, 1152, Program_c, 3, 0
4, 1152, Control_c, 3, 91, 40
4, 1152, Control_c, 3, 93, 0
4, 1152, Control_c, 3, 101, 0
4, 1152, Control_c, 3, 100, 0
4, 1152, Control_c, 3, 6, 12
4, 1152, Control_c, 3, 10, 64
4, 1152, Control_c, 3, 7, 100
4, 1152, Pitch_bend_c, 3, 8192
4, 1152, Program_c, 3, 0
4, 1152, Control_c, 3, 91, 40
4, 1152, Control_c, 3, 93, 0
4, 1152, Control_c, 3, 101, 0
4, 1152, Control_c, 3, 100, 0
4, 1152, Control_c, 3, 6, 12
4, 1152, Control_c, 3, 10, 64
4, 1152, Control_c, 3, 7, 100
4, 1152, Pitch_bend_c, 3, 8192
4, 1152, Program_c, 3, 0
4, 1152, Control_c, 3, 91, 40
4, 1152, Control_c, 3, 93, 0
4, 1152, End_track
0, 0, End_of_file
