0, 0, Header, 1, 4, 96
1, 0, Start_track
1, 0, Time_signature, 4, 2, 24, 8
1, 0, End_track
2, 0, Start_track
2, 0, Tempo, 600000
2, 0, Tempo, 600000
2, 0, Tempo, 600000
2, 0, End_track
3, 0, Start_track
3, 0, Title_t, "Channel #3"
3, 0, Control_c, 2, 10, 64
3, 0, Control_c, 2, 7, 100
3, 0, Pitch_bend_c, 2, 8192
3, 0, Control_c, 2, 101, 0
3, 0, Control_c, 2, 100, 0
3, 0, Control_c, 2, 6, 12
3, 0, Control_c, 2, 10, 64
3, 0, Control_c, 2, 7, 100
3, 0, Pitch_bend_c, 2, 8192
3, 0, Program_c, 2, 0
3, 0, Control_c, 2, 91, 40
3, 0, Control_c, 2, 93, 0
3, 0, Control_c, 2, 101, 0
3, 0, Control_c, 2, 100, 0
3, 0, Control_c, 2, 6, 12
3, 0, Control_c, 2, 10, 64
3, 0, Control_c, 2, 7, 100
3, 0, Pitch_bend_c, 2, 8192
3, 0, Program_c, 2, 0
3, 0, Control_c, 2, 91, 40
3, 0, Control_c, 2, 93, 0
3, 0, Control_c, 2, 101, 0
3, 0, Control_c, 2, 100, 0
3, 0, Control_c, 2, 6, 12
3, 0, Control_c, 2, 10, 64
3, 0, Control_c, 2, 7, 100
3, 0, Pitch_bend_c, 2, 8192
3, 0, Program_c, 2, 0
3, 0, Control_c, 2, 91, 40
3, 0, Control_c, 2, 93, 0
3, 0, Note_on_c, 2, 50, 79
3, 46, Note_off_c, 2, 50, 0
3, 48, Note_on_c, 2, 52, 68
3, 96, Program_c, 2, 0
3, 96, Note_on_c, 2, 54, 77
3, 99, Control_c, 2, 7, 100
3, 99, Control_c, 2, 10, 64
3, 100, Control_c, 2, 91, 40
3, 100, Control_c, 2, 93, 0
3, 101, Note_off_c, 2, 52, 0
3, 144, Note_on_c, 2, 55, 74
3, 153, Note_off_c, 2, 54, 0
3, 192, Note_on_c, 2, 57, 82
3, 196, Note_off_c, 2, 55, 0
3, 240, Note_on_c, 2, 55, 72
3, 242, Note_off_c, 2, 57, 0
3, 288, Note_on_c, 2, 54, 78
3, 289, Note_off_c, 2, 55, 0
3, 336, Note_on_c, 2, 52, 74
3, 344, Note_off_c, 2, 54, 0
3, 384, Note_on_c, 2, 50, 82
3, 386, Note_off_c, 2, 52, 0
3, 478, Note_off_c, 2, 50, 0
3, 480, Note_on_c, 2, 54, 81
3, 576, Note_off_c, 2, 54, 0
3, 576, Note_on_c, 2, 57, 76
3, 672, Note_on_c, 2, 54, 75
3, 677, Note_off_c, 2, 57, 0
3, 768, Note_on_c, 2, 50, 77
3, 772, Note_off_c, 2, 54, 0
3, 912, Note_off_c, 2, 50, 0
3, 960, Note_on_c, 2, 50, 80
3, 1145, Note_off_c, 2, 50, 0
3, 1344, Note_on_c, 2, 54, 78
3, 1528, Note_off_c, 2, 54, 0
3, 1728, Note_on_c, 2, 57, 75
3, 1916, Note_off_c, 2, 57, 0
3, 1920, Control_c, 2, 101, 0
3, 1920, Control_c, 2, 100, 0
3, 1920, Control_c, 2, 6, 12
3, 1920, Control_c, 2, 10, 64
3, 1920, Control_c, 2, 7, 100
3, 1920, Pitch_bend_c, 2, 8192
3, 1920, Program_c, 2, 0
3, 1920, Control_c, 2, 91, 40
3, 1920, Control_c, 2, 93, 0
3, 1920, Control_c, 2, 101, 0
3, 1920, Control_c, 2, 100, 0
3, 1920, Control_c, 2, 6, 12
3, 1920, Control_c, 2, 10, 64
3, 1920, Control_c, 2, 7, 100
3, 1920, Pitch_bend_c, 2, 8192
3, 1920, Program_c, 2, 0
3, 1920, Control_c, 2, 91, 40
3, 1920, Control_c, 2, 93, 0
3, 1920, Control_c, 2, 101, 0
3, 1920, Control_c, 2, 100, 0
3, 1920, Control_c, 2, 6, 12
3, 1920, Control_c, 2, 10, 64
3, 1920, Control_c, 2, 7, 100
3, 1920, Pitch_bend_c, 2, 8192
3, 1920, Program_c, 2, 0
3, 1920, Control_c, 2, 91, 40
3, 1920, Control_c, 2, 93, 0
3, 1920, End_track
4, 0, Start_track
4, 0, Title_t, "Channel #4"
4, 0, Control_c, 3, 10, 64
4, 0, Control_c, 3, 7, 100
4, 0, Pitch_bend_c, 3, 8192
4, 0, Control_c, 3, 101, 0
4, 0, Control_c, 3, 100, 0
4, 0, Control_c, 3, 6, 12
4, 0, Control_c, 3, 10, 64
4, 0, Control_c, 3, 7, 100
4, 0, Pitch_bend_c, 3, 8192
4, 0, Program_c, 3, 0
4, 0, Control_c, 3, 91, 40
4, 0, Control_c, 3, 93, 0
4, 0, Control_c, 3, 101, 0
4, 0, Control_c, 3, 100, 0
4, 0, Control_c, 3, 6, 12
4, 0, Control_c, 3, 10, 64
4, 0, Control_c, 3, 7, 100
4, 0, Pitch_bend_c, 3, 8192
4, 0, Program_c, 3, 0
4, 0, Control_c, 3, 91, 40
4, 0, Control_c, 3, 93, 0
4, 0, Control_c, 3, 101, 0
4, 0, Control_c, 3, 100, 0
4, 0, Control_c, 3, 6, 12
4, 0, Control_c, 3, 10, 64
4, 0, Control_c, 3, 7, 100
4, 0, Pitch_bend_c, 3, 8192
4, 0, Program_c, 3, 0
4, 0, Control_c, 3, 91, 40
4, 0, Control_c, 3, 93, 0
4, 101, Program_c, 3, 0
4, 104, Control_c, 3, 7, 100
4, 104, Control_c, 3, 10, 64
4, 105, Control_c, 3, 91, 40
4, 105, Control_c, 3, 93, 0
4, 1920, Control_c, 3, 101, 0
4, 1920, Control_c, 3, 100, 0
4, 1920, Control_c, 3, 6, 12
4, 1920, Control_c, 3, 10, 64
4, 1920, Control_c, 3, 7, 100
4, 1920, Pitch_bend_c, 3, 8192
4, 1920, Program_c, 3, 0
4, 1920, Control_c, 3, 91, 40
4, 1920, Control_c, 3, 93, 0
4, 1920, Control_c, 3, 101, 0
4, 1920, Control_c, 3, 100, 0
4, 1920, Control_c, 3, 6, 12
4, 1920, Control_c, 3, 10, 64
4, 1920, Control_c, 3, 7, 100
4, 1920, Pitch_bend_c, 3, 8192
4, 1920, Program_c, 3, 0
4, 1920, Control_c, 3, 91, 40
4, 1920, Control_c, 3, 93, 0
4, 1920, Control_c, 3, 101, 0
4, 1920, Control_c, 3, 100, 0
4, 1920, Control_c, 3, 6, 12
4, 1920, Control_c, 3, 10, 64
4, 1920, Control_c, 3, 7, 100
4, 1920, Pitch_bend_c, 3, 8192
4, 1920, Program_c, 3, 0
4, 1920, Control_c, 3, 91, 40
4, 1920, Control_c, 3, 93, 0
4, 1920, End_track
0, 0, End_of_file
