0, 0, Header, 1, 3, 96
1, 0, Start_track
1, 0, Time_signature, 4, 2, 24, 8
1, 0, End_track
2, 0, Start_track
2, 0, Tempo, 545455
2, 0, Tempo, 545455
2, 0, Tempo, 545455
2, 0, End_track
3, 0, Start_track
3, 0, Title_t, "Channel #4"
3, 0, Control_c, 3, 10, 64
3, 0, Control_c, 3, 7, 100
3, 0, Pitch_bend_c, 3, 8192
3, 0, Control_c, 3, 101, 0
3, 0, Control_c, 3, 100, 0
3, 0, Control_c, 3, 6, 12
3, 0, Control_c, 3, 10, 64
3, 0, Control_c, 3, 7, 100
3, 0, Pitch_bend_c, 3, 8192
3, 0, Program_c, 3, 0
3, 0, Control_c, 3, 91, 40
3, 0, Control_c, 3, 93, 0
3, 0, Control_c, 3, 101, 0
3, 0, Control_c, 3, 100, 0
3, 0, Control_c, 3, 6, 12
3, 0, Control_c, 3, 10, 64
3, 0, Control_c, 3, 7, 100
3, 0, Pitch_bend_c, 3, 8192
3, 0, Program_c, 3, 0
3, 0, Control_c, 3, 91, 40
3, 0, Control_c, 3, 93, 0
3, 0, Control_c, 3, 101, 0
3, 0, Control_c, 3, 100, 0
3, 0, Control_c, 3, 6, 12
3, 0, Control_c, 3, 10, 64
3, 0, Control_c, 3, 7, 100
3, 0, Pitch_bend_c, 3, 8192
3, 0, Program_c, 3, 0
3, 0, Control_c, 3, 91, 40
3, 0, Control_c, 3, 93, 0
3, 0, Note_on_c, 3, 71, 85
3, 48, Note_on_c, 3, 69, 72
3, 65, Note_off_c, 3, 71, 0
3, 96, Note_on_c, 3, 67, 80
3, 101, Program_c, 3, 0
3, 104, Control_c, 3, 7, 100
3, 104, Control_c, 3, 10, 64
3, 105, Control_c, 3, 91, 40
3, 105, Control_c, 3, 93, 0
3, 108, Note_off_c, 3, 69, 0
3, 144, Note_on_c, 3, 66, 72
3, 152, Note_off_c, 3, 67, 0
3, 192, Note_on_c, 3, 64, 89
3, 201, Note_off_c, 3, 66, 0
3, 240, Note_on_c, 3, 66, 68
3, 251, Note_off_c, 3, 64, 0
3, 288, Note_on_c, 3, 67, 85
3, 305, Note_off_c, 3, 66, 0
3, 336, Note_on_c, 3, 69, 80
3, 346, Note_off_c, 3, 67, 0
3, 384, Note_on_c, 3, 71, 93
3, 394, Note_off_c, 3, 69, 0
3, 412, Note_off_c, 3, 71, 0
3, 432, Note_on_c, 3, 69, 76
3, 480, Note_on_c, 3, 67, 76
3, 485, Note_off_c, 3, 69, 0
3, 528, Note_on_c, 3, 66, 64
3, 536, Note_off_c, 3, 67, 0
3, 576, Note_on_c, 3, 64, 80
3, 586, Note_off_c, 3, 66, 0
3, 624, Note_on_c, 3, 66, 72
3, 632, Note_off_c, 3, 64, 0
3, 672, Note_on_c, 3, 67, 89
3, 687, Note_off_c, 3, 66, 0
3, 720, Note_on_c, 3, 69, 85
3, 732, Note_off_c, 3, 67, 0
3, 768, Note_on_c, 3, 71, 93
3, 780, Note_off_c, 3, 69, 0
3, 804, Note_off_c, 3, 71, 0
3, 1152, Control_c, 3, 101, 0
3, 1152, Control_c, 3, 100, 0
3, 1152, Control_c, 3, 6, 12
3, 1152, Control_c, 3, 10, 64
3, 1152, Control_c, 3, 7, 100
3, 1152, Pitch_bend_c, 3, 8192
3, 1152, Program_c, 3, 0
3, 1152, Control_c, 3, 91, 40
3, 1152, Control_c, 3, 93, 0
3, 1152, Control_c, 3, 101, 0
3, 1152, Control_c, 3, 100, 0
3, 1152, Control_c, 3, 6, 12
3, 1152, Control_c, 3, 10, 64
3, 1152, Control_c, 3, 7, 100
3, 1152, Pitch_bend_c, 3, 8192
3, 1152, Program_c, 3, 0
3, 1152, Control_c, 3, 91, 40
3, 1152, Control_c, 3, 93, 0
3, 1152, Control_c, 3, 101, 0
3, 1152, Control_c, 3, 100, 0
3, 1152, Control_c, 3, 6, 12
3, 1152, Control_c, 3, 10, 64
3, 1152, Control_c, 3, 7, 100
3, 1152, Pitch_bend_c, 3, 8192
3, 1152, Program_c, 3, 0
3, 1152, Control_c, 3, 91, 40
3, 1152, Control_c, 3, 93, 0
3, 1152, End_track
0, 0, End_of_file
