0, 0, Header, 1, 3, 96
1, 0, Start_track
1, 0, Time_signature, 4, 2, 24, 8
1, 0, End_track
2, 0, Start_track
2, 0, Tempo, 681818
2, 0, Tempo, 681818
2, 0, Tempo, 681818
2, 0, End_track
3, 0, Start_track
3, 0, Title_t, "Channel #4"
3, 0, Control_c, 3, 10, 64
3, 0, Control_c, 3, 7, 100
3, 0, Pitch_bend_c, 3, 8192
3, 0, Control_c, 3, 101, 0
3, 0, Control_c, 3, 100, 0
3, 0, Control_c, 3, 6, 12
3, 0, Control_c, 3, 10, 64
3, 0, Control_c, 3, 7, 100
3, 0, Pitch_bend_c, 3, 8192
3, 0, Program_c, 3, 0
3, 0, Control_c, 3, 91, 40
3, 0, Control_c, 3, 93, 0
3, 0, Control_c, 3, 101, 0
3, 0, Control_c, 3, 100, 0
3, 0, Control_c, 3, 6, 12
3, 0, Control_c, 3, 10, 64
3, 0, Control_c, 3, 7, 100
3, 0, Pitch_bend_c, 3, 8192
3, 0, Program_c, 3, 0
3, 0, Control_c, 3, 91, 40
3, 0, Control_c, 3, 93, 0
3, 0, Control_c, 3, 101, 0
3, 0, Control_c, 3, 100, 0
3, 0, Control_c, 3, 6, 12
3, 0, Control_c, 3, 10, 64
3, 0, Control_c, 3, 7, 100
3, 0, Pitch_bend_c, 3, 8192
3, 0, Program_c, 3, 0
3, 0, Control_c, 3, 91, 40
3, 0, Control_c, 3, 93, 0
3, 0, Note_on_c, 3, 60, 56
3, 48, Note_off_c, 3, 60, 0
3, 48, Note_on_c, 3, 67, 60
3, 96, Note_off_c, 3, 67, 0
3, 96, Note_on_c, 3, 65, 64
3, 101, Program_c, 3, 0
3, 104, Control_c, 3, 7, 100
3, 104, Control_c, 3, 10, 64
3, 105, Control_c, 3, 91, 40
3, 105, Control_c, 3, 93, 0
3, 144, Note_off_c, 3, 65, 0
3, 144, Note_on_c, 3, 67, 60
3, 192, Note_off_c, 3, 67, 0
3, 192, Note_on_c, 3, 63, 80
3, 240, Note_off_c, 3, 63, 0
3, 240, Note_on_c, 3, 67, 62
3, 288, Note_off_c, 3, 67, 0
3, 288, Note_on_c, 3, 60, 60
3, 336, Note_off_c, 3, 60, 0
3, 336, Note_on_c, 3, 67, 60
3, 384, Note_off_c, 3, 67, 0
3, 384, Note_on_c, 3, 62, 64
3, 432, Note_off_c, 3, 62, 0
3, 432, Note_on_c, 3, 67, 62
3, 480, Note_off_c, 3, 67, 0
3, 480, Note_on_c, 3, 65, 72
3, 528, Note_off_c, 3, 65, 0
3, 528, Note_on_c, 3, 67, 62
3, 576, Note_off_c, 3, 67, 0
3, 576, Note_on_c, 3, 60, 72
3, 624, Note_off_c, 3, 60, 0
3, 624, Note_on_c, 3, 60, 72
3, 672, Note_off_c, 3, 60, 0
3, 672, Note_on_c, 3, 60, 72
3, 720, Note_off_c, 3, 60, 0
3, 720, Note_on_c, 3, 60, 72
3, 768, Note_off_c, 3, 60, 0
3, 768, Control_c, 3, 101, 0
3, 768, Control_c, 3, 100, 0
3, 768, Control_c, 3, 6, 12
3, 768, Control_c, 3, 10, 64
3, 768, Control_c, 3, 7, 100
3, 768, Pitch_bend_c, 3, 8192
3, 768, Program_c, 3, 0
3, 768, Control_c, 3, 91, 40
3, 768, Control_c, 3, 93, 0
3, 768, Control_c, 3, 101, 0
3, 768, Control_c, 3, 100, 0
3, 768, Control_c, 3, 6, 12
3, 768, Control_c, 3, 10, 64
3, 768, Control_c, 3, 7, 100
3, 768, Pitch_bend_c, 3, 8192
3, 768, Program_c, 3, 0
3, 768, Control_c, 3, 91, 40
3, 768, Control_c, 3, 93, 0
3, 768, Control_c, 3, 101, 0
3, 768, Control_c, 3, 100, 0
3, 768, Control_c, 3, 6, 12
3, 768, Control_c, 3, 10, 64
3, 768, Control_c, 3, 7, 100
3, 768, Pitch_bend_c, 3, 8192
3, 768, Program_c, 3, 0
3, 768, Control_c, 3, 91, 40
3, 768, Control_c, 3, 93, 0
3, 768, End_track
0, 0, End_of_file
