0, 0, Header, 1, 3, 96
1, 0, Start_track
1, 0, Time_signature, 4, 2, 24, 8
1, 0, End_track
2, 0, Start_track
2, 0, Tempo, 714286
2, 0, Tempo, 714286
2, 0, Tempo, 714286
2, 10117, Tempo, 722892
2, 10125, Tempo, 731707
2, 10141, Tempo, 740741
2, 10169, Tempo, 750000
2, 10201, Tempo, 759494
2, 10229, Tempo, 769231
2, 10273, Tempo, 779221
2, 10309, Tempo, 789474
2, 10341, Tempo, 800000
2, 10381, Tempo, 810811
2, 10625, Tempo, 800000
2, 10641, Tempo, 789474
2, 10657, Tempo, 779221
2, 10665, Tempo, 769231
2, 10677, Tempo, 759494
2, 10689, Tempo, 750000
2, 10705, Tempo, 740741
2, 10725, Tempo, 731707
2, 10761, Tempo, 722892
2, 10837, Tempo, 714286
2, 13112, Tempo, 722892
2, 13172, Tempo, 731707
2, 13176, Tempo, 740741
2, 13184, Tempo, 750000
2, 13200, Tempo, 759494
2, 13216, Tempo, 769231
2, 13236, Tempo, 779221
2, 13264, Tempo, 789474
2, 13308, Tempo, 800000
2, 13352, Tempo, 810811
2, 13400, Tempo, 821918
2, 13456, Tempo, 833333
2, 13524, Tempo, 845070
2, 13704, Tempo, 857143
2, 13704, End_track
3, 0, Start_track
3, 0, Title_t, "Channel #4"
3, 0, Control_c, 3, 10, 64
3, 0, Control_c, 3, 7, 100
3, 0, Pitch_bend_c, 3, 8192
3, 0, Control_c, 3, 101, 0
3, 0, Control_c, 3, 100, 0
3, 0, Control_c, 3, 6, 12
3, 0, Control_c, 3, 10, 64
3, 0, Control_c, 3, 7, 100
3, 0, Pitch_bend_c, 3, 8192
3, 0, Program_c, 3, 0
3, 0, Control_c, 3, 91, 40
3, 0, Control_c, 3, 93, 0
3, 0, Control_c, 3, 64, 0
3, 0, Control_c, 3, 101, 0
3, 0, Control_c, 3, 100, 0
3, 0, Control_c, 3, 6, 12
3, 0, Control_c, 3, 10, 64
3, 0, Control_c, 3, 7, 100
3, 0, Pitch_bend_c, 3, 8192
3, 0, Program_c, 3, 0
3, 0, Control_c, 3, 91, 40
3, 0, Control_c, 3, 93, 0
3, 0, Control_c, 3, 64, 0
3, 0, Control_c, 3, 101, 0
3, 0, Control_c, 3, 100, 0
3, 0, Control_c, 3, 6, 12
3, 0, Control_c, 3, 10, 64
3, 0, Control_c, 3, 7, 100
3, 0, Pitch_bend_c, 3, 8192
3, 0, Program_c, 3, 0
3, 0, Control_c, 3, 91, 40
3, 0, Control_c, 3, 93, 0
3, 0, Control_c, 3, 64, 0
3, 0, Note_on_c, 3, 72, 64
3, 96, Note_on_c, 3, 71, 80
3, 101, Program_c, 3, 0
3, 104, Note_off_c, 3, 72, 0
3, 104, Control_c, 3, 7, 100
3, 104, Control_c, 3, 10, 64
3, 105, Control_c, 3, 91, 40
3, 105, Control_c, 3, 93, 0
3, 192, Note_on_c, 3, 76, 93
3, 202, Note_off_c, 3, 71, 0
3, 268, Note_off_c, 3, 76, 0
3, 288, Note_on_c, 3, 76, 85
3, 356, Note_off_c, 3, 76, 0
3, 384, Note_on_c, 3, 71, 85
3, 480, Note_on_c, 3, 72, 85
3, 485, Note_off_c, 3, 71, 0
3, 576, Note_on_c, 3, 76, 80
3, 585, Note_off_c, 3, 72, 0
3, 663, Note_off_c, 3, 76, 0
3, 672, Note_on_c, 3, 76, 89
3, 732, Note_off_c, 3, 76, 0
3, 768, Note_on_c, 3, 72, 80
3, 864, Note_on_c, 3, 71, 68
3, 874, Note_off_c, 3, 72, 0
3, 960, Note_on_c, 3, 72, 72
3, 964, Note_off_c, 3, 71, 0
3, 1056, Note_on_c, 3, 74, 68
3, 1057, Note_off_c, 3, 72, 0
3, 1152, Note_on_c, 3, 72, 64
3, 1168, Note_off_c, 3, 74, 0
3, 1248, Note_on_c, 3, 71, 64
3, 1256, Note_off_c, 3, 72, 0
3, 1344, Note_on_c, 3, 76, 80
3, 1352, Note_off_c, 3, 71, 0
3, 1426, Note_off_c, 3, 76, 0
3, 1440, Note_on_c, 3, 76, 98
3, 1485, Note_off_c, 3, 76, 0
3, 3196, Control_c, 3, 64, 127
3, 3283, Control_c, 3, 64, 0
3, 3317, Control_c, 3, 64, 127
3, 3371, Control_c, 3, 64, 0
3, 6268, Control_c, 3, 64, 127
3, 6355, Control_c, 3, 64, 0
3, 6389, Control_c, 3, 64, 127
3, 6443, Control_c, 3, 64, 0
3, 13824, Control_c, 3, 101, 0
3, 13824, Control_c, 3, 100, 0
3, 13824, Control_c, 3, 6, 12
3, 13824, Control_c, 3, 10, 64
3, 13824, Control_c, 3, 7, 100
3, 13824, Pitch_bend_c, 3, 8192
3, 13824, Program_c, 3, 0
3, 13824, Control_c, 3, 91, 40
3, 13824, Control_c, 3, 93, 0
3, 13824, Control_c, 3, 64, 0
3, 13824, Control_c, 3, 101, 0
3, 13824, Control_c, 3, 100, 0
3, 13824, Control_c, 3, 6, 12
3, 13824, Control_c, 3, 10, 64
3, 13824, Control_c, 3, 7, 100
3, 13824, Pitch_bend_c, 3, 8192
3, 13824, Program_c, 3, 0
3, 13824, Control_c, 3, 91, 40
3, 13824, Control_c, 3, 93, 0
3, 13824, Control_c, 3, 64, 0
3, 13824, Control_c, 3, 101, 0
3, 13824, Control_c, 3, 100, 0
3, 13824, Control_c, 3, 6, 12
3, 13824, Control_c, 3, 10, 64
3, 13824, Control_c, 3, 7, 100
3, 13824, Pitch_bend_c, 3, 8192
3, 13824, Program_c, 3, 0
3, 13824, Control_c, 3, 91, 40
3, 13824, Control_c, 3, 93, 0
3, 13824, Control_c, 3, 64, 0
3, 13824, End_track
0, 0, End_of_file
