0, 0, Header, 1, 3, 96
1, 0, Start_track
1, 0, Time_signature, 4, 2, 24, 8
1, 0, End_track
2, 0, Start_track
2, 0, Tempo, 400000
2, 0, Tempo, 400000
2, 0, Tempo, 400000
2, 0, End_track
3, 0, Start_track
3, 0, Title_t, "Channel #4"
3, 0, Control_c, 3, 10, 64
3, 0, Control_c, 3, 7, 100
3, 0, Pitch_bend_c, 3, 8192
3, 0, Control_c, 3, 101, 0
3, 0, Control_c, 3, 100, 0
3, 0, Control_c, 3, 6, 12
3, 0, Control_c, 3, 10, 64
3, 0, Control_c, 3, 7, 100
3, 0, Pitch_bend_c, 3, 8192
3, 0, Program_c, 3, 0
3, 0, Control_c, 3, 91, 40
3, 0, Control_c, 3, 93, 0
3, 0, Control_c, 3, 101, 0
3, 0, Control_c, 3, 100, 0
3, 0, Control_c, 3, 6, 12
3, 0, Control_c, 3, 10, 64
3, 0, Control_c, 3, 7, 100
3, 0, Pitch_bend_c, 3, 8192
3, 0, Program_c, 3, 0
3, 0, Control_c, 3, 91, 40
3, 0, Control_c, 3, 93, 0
3, 0, Control_c, 3, 101, 0
3, 0, Control_c, 3, 100, 0
3, 0, Control_c, 3, 6, 12
3, 0, Control_c, 3, 10, 64
3, 0, Control_c, 3, 7, 100
3, 0, Pitch_bend_c, 3, 8192
3, 0, Program_c, 3, 0
3, 0, Control_c, 3, 91, 40
3, 0, Control_c, 3, 93, 0
3, 0, Note_on_c, 3, 72, 85
3, 24, Note_off_c, 3, 72, 0
3, 96, Note_on_c, 3, 76, 73
3, 101, Program_c, 3, 0
3, 104, Control_c, 3, 7, 100
3, 104, Control_c, 3, 10, 64
3, 105, Control_c, 3, 91, 40
3, 105, Control_c, 3, 93, 0
3, 121, Note_off_c, 3, 76, 0
3, 192, Note_on_c, 3, 72, 97
3, 220, Note_off_c, 3, 72, 0
3, 288, Note_on_c, 3, 76, 97
3, 311, Note_off_c, 3, 76, 0
3, 384, Note_on_c, 3, 79, 110
3, 412, Note_off_c, 3, 79, 0
3, 480, Note_on_c, 3, 76, 94
3, 502, Note_off_c, 3, 76, 0
3, 576, Note_on_c, 3, 72, 97
3, 600, Note_off_c, 3, 72, 0
3, 672, Note_on_c, 3, 76, 97
3, 697, Note_off_c, 3, 76, 0
3, 768, Note_on_c, 3, 74, 97
3, 800, Note_off_c, 3, 74, 0
3, 864, Note_on_c, 3, 77, 85
3, 888, Note_off_c, 3, 77, 0
3, 960, Note_on_c, 3, 76, 94
3, 983, Note_off_c, 3, 76, 0
3, 1056, Note_on_c, 3, 74, 97
3, 1078, Note_off_c, 3, 74, 0
3, 1152, Note_on_c, 3, 72, 100
3, 1181, Note_off_c, 3, 72, 0
3, 1248, Note_on_c, 3, 76, 94
3, 1273, Note_off_c, 3, 76, 0
3, 1344, Note_on_c, 3, 79, 114
3, 1376, Note_off_c, 3, 79, 0
3, 1440, Note_on_c, 3, 72, 100
3, 1488, Note_off_c, 3, 72, 64
3, 1536, Control_c, 3, 101, 0
3, 1536, Control_c, 3, 100, 0
3, 1536, Control_c, 3, 6, 12
3, 1536, Control_c, 3, 10, 64
3, 1536, Control_c, 3, 7, 100
3, 1536, Pitch_bend_c, 3, 8192
3, 1536, Program_c, 3, 0
3, 1536, Control_c, 3, 91, 40
3, 1536, Control_c, 3, 93, 0
3, 1536, Control_c, 3, 101, 0
3, 1536, Control_c, 3, 100, 0
3, 1536, Control_c, 3, 6, 12
3, 1536, Control_c, 3, 10, 64
3, 1536, Control_c, 3, 7, 100
3, 1536, Pitch_bend_c, 3, 8192
3, 1536, Program_c, 3, 0
3, 1536, Control_c, 3, 91, 40
3, 1536, Control_c, 3, 93, 0
3, 1536, Control_c, 3, 101, 0
3, 1536, Control_c, 3, 100, 0
3, 1536, Control_c, 3, 6, 12
3, 1536, Control_c, 3, 10, 64
3, 1536, Control_c, 3, 7, 100
3, 1536, Pitch_bend_c, 3, 8192
3, 1536, Program_c, 3, 0
3, 1536, Control_c, 3, 91, 40
3, 1536, Control_c, 3, 93, 0
3, 1536, End_track
0, 0, End_of_file
