0, 0, Header, 1, 3, 96
1, 0, Start_track
1, 0, Time_signature, 4, 2, 24, 8
1, 0, End_track
2, 0, Start_track
2, 0, Tempo, 600000
2, 0, Tempo, 600000
2, 0, Tempo, 600000
2, 0, End_track
3, 0, Start_track
3, 0, Title_t, "Channel #4"
3, 0, Control_c, 3, 10, 64
3, 0, Control_c, 3, 7, 100
3, 0, Pitch_bend_c, 3, 8192
3, 0, Control_c, 3, 101, 0
3, 0, Control_c, 3, 100, 0
3, 0, Control_c, 3, 6, 12
3, 0, Control_c, 3, 10, 64
3, 0, Control_c, 3, 7, 100
3, 0, Pitch_bend_c, 3, 8192
3, 0, Program_c, 3, 0
3, 0, Control_c, 3, 91, 40
3, 0, Control_c, 3, 93, 0
3, 0, Control_c, 3, 101, 0
3, 0, Control_c, 3, 100, 0
3, 0, Control_c, 3, 6, 12
3, 0, Control_c, 3, 10, 64
3, 0, Control_c, 3, 7, 100
3, 0, Pitch_bend_c, 3, 8192
3, 0, Program_c, 3, 0
3, 0, Control_c, 3, 91, 40
3, 0, Control_c, 3, 93, 0
3, 0, Control_c, 3, 101, 0
3, 0, Control_c, 3, 100, 0
3, 0, Control_c, 3, 6, 12
3, 0, Control_c, 3, 10, 64
3, 0, Control_c, 3, 7, 100
3, 0, Pitch_bend_c, 3, 8192
3, 0, Program_c, 3, 0
3, 0, Control_c, 3, 91, 40
3, 0, Control_c, 3, 93, 0
3, 0, Note_on_c, 3, 72, 73
3, 48, Note_on_c, 3, 74, 69
3, 52, Note_off_c, 3, 72, 0
3, 96, Note_on_c, 3, 76, 75
3, 101, Program_c, 3, 0
3, 104, Note_off_c, 3, 74, 0
3, 104, Control_c, 3, 7, 100
3, 104, Control_c, 3, 10, 64
3, 105, Control_c, 3, 91, 40
3, 105, Control_c, 3, 93, 0
3, 144, Note_on_c, 3, 77, 71
3, 152, Note_off_c, 3, 76, 0
3, 192, Note_on_c, 3, 79, 79
3, 196, Note_off_c, 3, 77, 0
3, 240, Note_on_c, 3, 77, 74
3, 248, Note_off_c, 3, 79, 0
3, 288, Note_on_c, 3, 76, 74
3, 296, Note_off_c, 3, 77, 0
3, 336, Note_on_c, 3, 74, 70
3, 340, Note_off_c, 3, 76, 0
3, 384, Note_on_c, 3, 72, 76
3, 388, Note_off_c, 3, 74, 0
3, 480, Note_on_c, 3, 76, 76
3, 489, Note_off_c, 3, 72, 0
3, 576, Note_on_c, 3, 79, 76
3, 584, Note_off_c, 3, 76, 0
3, 672, Note_on_c, 3, 76, 77
3, 673, Note_off_c, 3, 79, 0
3, 768, Note_off_c, 3, 76, 0
3, 768, Note_on_c, 3, 72, 77
3, 942, Note_off_c, 3, 72, 0
3, 960, Note_on_c, 3, 72, 59
3, 1141, Note_off_c, 3, 72, 0
3, 1344, Note_on_c, 3, 76, 82
3, 1522, Note_off_c, 3, 76, 0
3, 1728, Note_on_c, 3, 79, 80
3, 1909, Note_off_c, 3, 79, 0
3, 1920, Control_c, 3, 101, 0
3, 1920, Control_c, 3, 100, 0
3, 1920, Control_c, 3, 6, 12
3, 1920, Control_c, 3, 10, 64
3, 1920, Control_c, 3, 7, 100
3, 1920, Pitch_bend_c, 3, 8192
3, 1920, Program_c, 3, 0
3, 1920, Control_c, 3, 91, 40
3, 1920, Control_c, 3, 93, 0
3, 1920, Control_c, 3, 101, 0
3, 1920, Control_c, 3, 100, 0
3, 1920, Control_c, 3, 6, 12
3, 1920, Control_c, 3, 10, 64
3, 1920, Control_c, 3, 7, 100
3, 1920, Pitch_bend_c, 3, 8192
3, 1920, Program_c, 3, 0
3, 1920, Control_c, 3, 91, 40
3, 1920, Control_c, 3, 93, 0
3, 1920, Control_c, 3, 101, 0
3, 1920, Control_c, 3, 100, 0
3, 1920, Control_c, 3, 6, 12
3, 1920, Control_c, 3, 10, 64
3, 1920, Control_c, 3, 7, 100
3, 1920, Pitch_bend_c, 3, 8192
3, 1920, Program_c, 3, 0
3, 1920, Control_c, 3, 91, 40
3, 1920, Control_c, 3, 93, 0
3, 1920, End_track
0, 0, End_of_file
